<svg xmlns="http://www.w3.org/2000/svg" width="1200" height="630" viewBox="0 0 1200 630">
  <rect x="0" y="0" width="1200" height="630" fill="#fff"/>
  <clipPath id="cp0">
    <path d="M-1000000-1000000H1000000V1000000H-1000000ZM194 205h172c13.25 0 24 10.75 24 24v172c0 13.25-10.75 24-24 24h-172c-13.25 0-24-10.75-24-24v-172c0-13.25 10.75-24 24-24Z" clip-rule="evenodd"/>
  </clipPath>
  <g clip-path="url(#cp0)">
    <path d="M218 229h172c13.25 0 24 10.75 24 24v172c0 13.25-10.75 24-24 24h-172c-13.25 0-24-10.75-24-24v-172c0-13.25 10.75-24 24-24Z" fill="#0f172a"/>
  </g>
  <path d="M194 205h172c13.25 0 24 10.75 24 24v172c0 13.25-10.75 24-24 24h-172c-13.25 0-24-10.75-24-24v-172c0-13.25 10.75-24 24-24Z" fill="#3b82f6" fill-opacity=".251"/>
  <clipPath id="cp1">
    <path d="M-1000000-1000000H1000000V1000000H-1000000ZM490 205h220v220h-220v-220Z" clip-rule="evenodd"/>
  </clipPath>
  <g clip-path="url(#cp1)">
    <path d="M530 245h220v220h-220v-220Z" fill="#2563eb"/>
    <path d="M510 225h220v220h-220v-220Z" fill="#e11d48"/>
  </g>
  <rect x="490" y="205" width="220" height="220" fill="#f1f5f9"/>
  <clipPath id="cp2">
    <path d="M-1000000-1000000H1000000V1000000H-1000000ZM850 205h140c22.09 0 40 17.91 40 40v140c0 22.09-17.91 40-40 40h-140c-22.09 0-40-17.91-40-40v-140c0-22.09 17.91-40 40-40Z" clip-rule="evenodd"/>
  </clipPath>
  <g clip-path="url(#cp2)">
    <filter id="bl3">
      <feGaussianBlur stdDeviation="12"/>
    </filter>
    <g filter="url(#bl3)">
      <path d="M858.5 213.5h140c22.09 0 40 17.91 40 40v140c0 22.09-17.91 40-40 40h-140c-22.09 0-40-17.91-40-40v-140c0-22.09 17.91-40 40-40Z" fill="#0f172a" fill-opacity=".4"/>
    </g>
  </g>
  <path d="M850 205h140c22.09 0 40 17.91 40 40v140c0 22.09-17.91 40-40 40h-140c-22.09 0-40-17.91-40-40v-140c0-22.09 17.91-40 40-40Z" fill="#f1f5f9"/>
  <clipPath id="cp4">
    <path d="M850 205h140c22.09 0 40 17.91 40 40v140c0 22.09-17.91 40-40 40h-140c-22.09 0-40-17.91-40-40v-140c0-22.09 17.91-40 40-40Z"/>
  </clipPath>
  <g clip-path="url(#cp4)">
    <filter id="bl5">
      <feGaussianBlur stdDeviation="8"/>
    </filter>
    <g filter="url(#bl5)">
      <path d="M785 180h280.5v280.5h-280.5v-280.5Zm75.5 35.5h140c22.09 0 40 17.91 40 40v140c0 22.09-17.91 40-40 40h-140c-22.09 0-40-17.91-40-40v-140c0-22.09 17.91-40 40-40Z" fill="#0f172a" fill-opacity=".6" fill-rule="evenodd"/>
    </g>
  </g>
</svg>