<svg xmlns="http://www.w3.org/2000/svg" width="1200" height="630" viewBox="0 0 1200 630">
  <rect x="0" y="0" width="1200" height="580" fill="#fff"/>
  <rect x="30" y="30" width="280" height="160" fill="#e6e6e6"/>
  <linearGradient id="lg0" gradientUnits="userSpaceOnUse" x1="65" y1="30" x2="65" y2="100">
    <stop offset="0" stop-color="#d00"/>
    <stop offset=".016" stop-color="#d00"/>
    <stop offset=".032" stop-color="#d00"/>
    <stop offset=".048" stop-color="#d00"/>
    <stop offset=".063" stop-color="#d00"/>
    <stop offset=".079" stop-color="#d00"/>
    <stop offset=".095" stop-color="#d00"/>
    <stop offset=".111" stop-color="#d00"/>
    <stop offset=".127" stop-color="#d00"/>
    <stop offset=".143" stop-color="#d00"/>
    <stop offset=".159" stop-color="#d00"/>
    <stop offset=".175" stop-color="#d00"/>
    <stop offset=".19" stop-color="#d00"/>
    <stop offset=".206" stop-color="#d00"/>
    <stop offset=".222" stop-color="#d00"/>
    <stop offset=".238" stop-color="#d00"/>
    <stop offset=".254" stop-color="#d00"/>
    <stop offset=".27" stop-color="#d00"/>
    <stop offset=".286" stop-color="#d00"/>
    <stop offset=".302" stop-color="#d00"/>
    <stop offset=".317" stop-color="#d00"/>
    <stop offset=".333" stop-color="#d00"/>
    <stop offset=".349" stop-color="#d00"/>
    <stop offset=".365" stop-color="#d00"/>
    <stop offset=".381" stop-color="#d00"/>
    <stop offset=".397" stop-color="#d00"/>
    <stop offset=".413" stop-color="#d00"/>
    <stop offset=".429" stop-color="#d00"/>
    <stop offset=".444" stop-color="#d00"/>
    <stop offset=".46" stop-color="#d00"/>
    <stop offset=".476" stop-color="#d00"/>
    <stop offset=".492" stop-color="#d00"/>
    <stop offset=".508" stop-color="#d00"/>
    <stop offset=".524" stop-color="#d00"/>
    <stop offset=".54" stop-color="#d00"/>
    <stop offset=".556" stop-color="#d00"/>
    <stop offset=".571" stop-color="#d00"/>
    <stop offset=".587" stop-color="#d00"/>
    <stop offset=".603" stop-color="#d00"/>
    <stop offset=".619" stop-color="#d00"/>
    <stop offset=".635" stop-color="#d00"/>
    <stop offset=".651" stop-color="#d00"/>
    <stop offset=".667" stop-color="#d00"/>
    <stop offset=".683" stop-color="#d00"/>
    <stop offset=".698" stop-color="#d00"/>
    <stop offset=".714" stop-color="#d00"/>
    <stop offset=".73" stop-color="#d00"/>
    <stop offset=".746" stop-color="#d00"/>
    <stop offset=".762" stop-color="#d00"/>
    <stop offset=".778" stop-color="#d00"/>
    <stop offset=".794" stop-color="#d00"/>
    <stop offset=".81" stop-color="#d00"/>
    <stop offset=".825" stop-color="#d00"/>
    <stop offset=".841" stop-color="#d00"/>
    <stop offset=".857" stop-color="#d00"/>
    <stop offset=".873" stop-color="#d00"/>
    <stop offset=".889" stop-color="#d00"/>
    <stop offset=".905" stop-color="#d00"/>
    <stop offset=".921" stop-color="#d00"/>
    <stop offset=".937" stop-color="#d00"/>
    <stop offset=".952" stop-color="#d00"/>
    <stop offset=".968" stop-color="#d00"/>
    <stop offset=".984" stop-color="#d00"/>
    <stop offset="1" stop-color="#d00"/>
  </linearGradient>
  <rect x="30" y="30" width="70" height="70" fill="url(#lg0)"/>
  <path d="M30 30h280v160h-280v-160Zm40 40h200v80h-200v-80Z" fill="#7878c8" fill-opacity=".471" fill-rule="evenodd"/>
  <g fill="#000">
    <use href="#g0" x="100" y="116"/>
    <use href="#g1" x="109.36" y="116"/>
    <use href="#g2" x="118.37" y="116"/>
    <use href="#g3" x="123.79" y="116"/>
    <use href="#g4" x="133.15" y="116"/>
    <use href="#g2" x="141.97" y="116"/>
    <use href="#g5" x="147.39" y="116"/>
    <use href="#g0" x="154.1" y="116"/>
    <use href="#g1" x="163.46" y="116"/>
    <use href="#g6" x="171.82" y="116"/>
  </g>
  <rect x="30" y="210" width="280" height="160" fill="#e6e6e6"/>
  <linearGradient id="lg1" gradientUnits="userSpaceOnUse" x1="105" y1="250" x2="105" y2="320">
    <stop offset="0" stop-color="#d00"/>
    <stop offset=".016" stop-color="#d00"/>
    <stop offset=".032" stop-color="#d00"/>
    <stop offset=".048" stop-color="#d00"/>
    <stop offset=".063" stop-color="#d00"/>
    <stop offset=".079" stop-color="#d00"/>
    <stop offset=".095" stop-color="#d00"/>
    <stop offset=".111" stop-color="#d00"/>
    <stop offset=".127" stop-color="#d00"/>
    <stop offset=".143" stop-color="#d00"/>
    <stop offset=".159" stop-color="#d00"/>
    <stop offset=".175" stop-color="#d00"/>
    <stop offset=".19" stop-color="#d00"/>
    <stop offset=".206" stop-color="#d00"/>
    <stop offset=".222" stop-color="#d00"/>
    <stop offset=".238" stop-color="#d00"/>
    <stop offset=".254" stop-color="#d00"/>
    <stop offset=".27" stop-color="#d00"/>
    <stop offset=".286" stop-color="#d00"/>
    <stop offset=".302" stop-color="#d00"/>
    <stop offset=".317" stop-color="#d00"/>
    <stop offset=".333" stop-color="#d00"/>
    <stop offset=".349" stop-color="#d00"/>
    <stop offset=".365" stop-color="#d00"/>
    <stop offset=".381" stop-color="#d00"/>
    <stop offset=".397" stop-color="#d00"/>
    <stop offset=".413" stop-color="#d00"/>
    <stop offset=".429" stop-color="#d00"/>
    <stop offset=".444" stop-color="#d00"/>
    <stop offset=".46" stop-color="#d00"/>
    <stop offset=".476" stop-color="#d00"/>
    <stop offset=".492" stop-color="#d00"/>
    <stop offset=".508" stop-color="#d00"/>
    <stop offset=".524" stop-color="#d00"/>
    <stop offset=".54" stop-color="#d00"/>
    <stop offset=".556" stop-color="#d00"/>
    <stop offset=".571" stop-color="#d00"/>
    <stop offset=".587" stop-color="#d00"/>
    <stop offset=".603" stop-color="#d00"/>
    <stop offset=".619" stop-color="#d00"/>
    <stop offset=".635" stop-color="#d00"/>
    <stop offset=".651" stop-color="#d00"/>
    <stop offset=".667" stop-color="#d00"/>
    <stop offset=".683" stop-color="#d00"/>
    <stop offset=".698" stop-color="#d00"/>
    <stop offset=".714" stop-color="#d00"/>
    <stop offset=".73" stop-color="#d00"/>
    <stop offset=".746" stop-color="#d00"/>
    <stop offset=".762" stop-color="#d00"/>
    <stop offset=".778" stop-color="#d00"/>
    <stop offset=".794" stop-color="#d00"/>
    <stop offset=".81" stop-color="#d00"/>
    <stop offset=".825" stop-color="#d00"/>
    <stop offset=".841" stop-color="#d00"/>
    <stop offset=".857" stop-color="#d00"/>
    <stop offset=".873" stop-color="#d00"/>
    <stop offset=".889" stop-color="#d00"/>
    <stop offset=".905" stop-color="#d00"/>
    <stop offset=".921" stop-color="#d00"/>
    <stop offset=".937" stop-color="#d00"/>
    <stop offset=".952" stop-color="#d00"/>
    <stop offset=".968" stop-color="#d00"/>
    <stop offset=".984" stop-color="#d00"/>
    <stop offset="1" stop-color="#d00"/>
  </linearGradient>
  <rect x="70" y="250" width="70" height="70" fill="url(#lg1)"/>
  <path d="M30 210h280v160h-280v-160Zm40 40h200v80h-200v-80Z" fill="#7878c8" fill-opacity=".471" fill-rule="evenodd"/>
  <g fill="#000">
    <use href="#g7" x="100" y="296"/>
    <use href="#g8" x="109.58" y="296"/>
    <use href="#g3" x="118.3" y="296"/>
    <use href="#g3" x="127.66" y="296"/>
    <use href="#g9" x="136.86" y="296"/>
    <use href="#g10" x="140.86" y="296"/>
    <use href="#g11" x="149.97" y="296"/>
    <use href="#g5" x="159.47" y="296"/>
    <use href="#g0" x="166.18" y="296"/>
    <use href="#g1" x="175.54" y="296"/>
    <use href="#g6" x="183.9" y="296"/>
  </g>
  <rect x="30" y="390" width="280" height="160" fill="#e6e6e6"/>
  <linearGradient id="lg2" gradientUnits="userSpaceOnUse" x1="135" y1="460" x2="135" y2="530">
    <stop offset="0" stop-color="#d00"/>
    <stop offset=".016" stop-color="#d00"/>
    <stop offset=".032" stop-color="#d00"/>
    <stop offset=".048" stop-color="#d00"/>
    <stop offset=".063" stop-color="#d00"/>
    <stop offset=".079" stop-color="#d00"/>
    <stop offset=".095" stop-color="#d00"/>
    <stop offset=".111" stop-color="#d00"/>
    <stop offset=".127" stop-color="#d00"/>
    <stop offset=".143" stop-color="#d00"/>
    <stop offset=".159" stop-color="#d00"/>
    <stop offset=".175" stop-color="#d00"/>
    <stop offset=".19" stop-color="#d00"/>
    <stop offset=".206" stop-color="#d00"/>
    <stop offset=".222" stop-color="#d00"/>
    <stop offset=".238" stop-color="#d00"/>
    <stop offset=".254" stop-color="#d00"/>
    <stop offset=".27" stop-color="#d00"/>
    <stop offset=".286" stop-color="#d00"/>
    <stop offset=".302" stop-color="#d00"/>
    <stop offset=".317" stop-color="#d00"/>
    <stop offset=".333" stop-color="#d00"/>
    <stop offset=".349" stop-color="#d00"/>
    <stop offset=".365" stop-color="#d00"/>
    <stop offset=".381" stop-color="#d00"/>
    <stop offset=".397" stop-color="#d00"/>
    <stop offset=".413" stop-color="#d00"/>
    <stop offset=".429" stop-color="#d00"/>
    <stop offset=".444" stop-color="#d00"/>
    <stop offset=".46" stop-color="#d00"/>
    <stop offset=".476" stop-color="#d00"/>
    <stop offset=".492" stop-color="#d00"/>
    <stop offset=".508" stop-color="#d00"/>
    <stop offset=".524" stop-color="#d00"/>
    <stop offset=".54" stop-color="#d00"/>
    <stop offset=".556" stop-color="#d00"/>
    <stop offset=".571" stop-color="#d00"/>
    <stop offset=".587" stop-color="#d00"/>
    <stop offset=".603" stop-color="#d00"/>
    <stop offset=".619" stop-color="#d00"/>
    <stop offset=".635" stop-color="#d00"/>
    <stop offset=".651" stop-color="#d00"/>
    <stop offset=".667" stop-color="#d00"/>
    <stop offset=".683" stop-color="#d00"/>
    <stop offset=".698" stop-color="#d00"/>
    <stop offset=".714" stop-color="#d00"/>
    <stop offset=".73" stop-color="#d00"/>
    <stop offset=".746" stop-color="#d00"/>
    <stop offset=".762" stop-color="#d00"/>
    <stop offset=".778" stop-color="#d00"/>
    <stop offset=".794" stop-color="#d00"/>
    <stop offset=".81" stop-color="#d00"/>
    <stop offset=".825" stop-color="#d00"/>
    <stop offset=".841" stop-color="#d00"/>
    <stop offset=".857" stop-color="#d00"/>
    <stop offset=".873" stop-color="#d00"/>
    <stop offset=".889" stop-color="#d00"/>
    <stop offset=".905" stop-color="#d00"/>
    <stop offset=".921" stop-color="#d00"/>
    <stop offset=".937" stop-color="#d00"/>
    <stop offset=".952" stop-color="#d00"/>
    <stop offset=".968" stop-color="#d00"/>
    <stop offset=".984" stop-color="#d00"/>
    <stop offset="1" stop-color="#d00"/>
  </linearGradient>
  <rect x="100" y="460" width="70" height="70" fill="url(#lg2)"/>
  <path d="M30 390h280v160h-280v-160Zm40 40h200v80h-200v-80Z" fill="#7878c8" fill-opacity=".471" fill-rule="evenodd"/>
  <g fill="#000">
    <use href="#g12" x="100" y="476"/>
    <use href="#g1" x="108.58" y="476"/>
    <use href="#g10" x="117.58" y="476"/>
    <use href="#g13" x="126.24" y="476"/>
    <use href="#g4" x="132.26" y="476"/>
    <use href="#g10" x="141.07" y="476"/>
    <use href="#g13" x="149.73" y="476"/>
    <use href="#g5" x="155.52" y="476"/>
    <use href="#g0" x="162.22" y="476"/>
    <use href="#g1" x="171.58" y="476"/>
    <use href="#g6" x="179.95" y="476"/>
  </g>
  <defs>
    <path id="g0" d="M5.17.19q-.89 0-1.58-.39t-1.04-1.08l-.05 1.28h-1.22v-11.36h1.35l-.01 4.06q.32-.53.99-.95t1.56-.42q1.11 0 1.92.55.83.54 1.27 1.54.45.99.45 2.35t-.45 2.36q-.44.98-1.27 1.53-.81.53-1.92.53Zm-.08-1.28q1.07 0 1.69-.85t.63-2.29q0-1.49-.63-2.32-.62-.84-1.66-.84-.78 0-1.34.37t-.86 1.08-.3 1.71q.01.95.3 1.67.3.7.85 1.09.54.38 1.32.38Z"/>
    <path id="g1" d="M4.59.19q-1.17 0-2.06-.53-.87-.55-1.36-1.55-.47-1-.47-2.34 0-1.36.47-2.35.49-1 1.36-1.55.89-.54 2.06-.54t2.03.55q.88.54 1.36 1.54.49.99.49 2.35 0 1.34-.49 2.34-.48 1-1.36 1.55-.85.53-2.03.53Zm0-1.28q1.18 0 1.82-.83.65-.85.65-2.31 0-1.49-.65-2.32-.64-.84-1.82-.84-1.17 0-1.82.84-.66.83-.66 2.32 0 1.46.66 2.31.65.83 1.82.83Z"/>
    <path id="g2" d="M1.28 0v-8.48h1.19l.06 2.14-.12-.05q.15-1.08.68-1.58.54-.51 1.44-.51h.83v1.28h-.81q-.64 0-1.07.23-.42.24-.64.69t-.21 1.16l-.01 5.12Z"/>
    <path id="g3" d="M4.28.19q-1.09 0-1.91-.53-.81-.55-1.24-1.54t-.43-2.35.43-2.35 1.25-1.55q.81-.54 1.9-.54.86 0 1.56.36t1.05 1.01v-4.06h1.34v11.36h-1.2l-.06-1.28q-.34.69-1.06 1.08t-1.63.39Zm.28-1.28q.75 0 1.27-.38t.8-1.09q.26-.72.26-1.67 0-1-.26-1.71-.27-.7-.8-1.08-.52-.37-1.27-.37-1.12 0-1.79.84t-.66 2.32q0 1.45.66 2.29t1.79.85Z"/>
    <path id="g4" d="M4.59.19q-1.2 0-2.07-.53-.88-.55-1.35-1.55t-.47-2.34.47-2.33q.47-1 1.33-1.55.86-.56 2.03-.56 1.09 0 1.94.53.86.52 1.33 1.52.47.98.47 2.4v.39h-6.16q.08 1.36.72 2.05.65.69 1.76.69.83 0 1.36-.39.55-.4.75-1.04l1.44.11q-.33 1.14-1.27 1.88-.93.72-2.28.72Zm-2.48-5.21h4.69q-.1-1.21-.72-1.79t-1.55-.58q-.98 0-1.62.61-.63.59-.8 1.76Z"/>
    <path id="g5" d="M.7-4.03v-1.27h5.3v1.27Z"/>
    <path id="g6" d="M.75 0l3.13-4.36-2.97-4.12h1.57l2.22 3.2 2.16-3.2h1.61l-2.94 4.17 3.08 4.31h-1.56l-2.35-3.42-2.34 3.42Z"/>
    <path id="g7" d="M1.28 2.41v-10.89h1.25l.03 1.82-.18-.09q.31-.95 1.04-1.44.75-.48 1.74-.48 1.26 0 2.06.62.81.63 1.2 1.64t.39 2.18q0 1.15-.39 2.17-.39 1-1.2 1.62-.8.63-2.06.63-.66 0-1.24-.22-.56-.22-.95-.63t-.53-.93l.18-.24.01 4.24Zm3.75-3.5q1.09 0 1.74-.83.64-.83.64-2.31 0-1.5-.64-2.33t-1.74-.83q-.75 0-1.28.36-.53.34-.83 1.05-.3.7-.3 1.75.01 1.03.29 1.73.29.7.82 1.06.55.35 1.3.35Z"/>
    <path id="g8" d="M3.56.19q-1.31 0-2.09-.61-.77-.61-.77-1.69 0-1.09.64-1.72t2.03-.87l3.02-.57q0-1.07-.51-1.59-.51-.53-1.51-.53-.89 0-1.4.39t-.7 1.13l-1.43-.11q.25-1.21 1.16-1.94.92-.75 2.38-.75 1.62 0 2.48.92.87.92.87 2.53v3.5q0 .3.1.42t.34.11h.35v1.19q-.07.02-.22.02-.14.01-.3.01-.58 0-.94-.19t-.51-.57q-.16-.4-.16-1.04l.16.04q-.11.54-.55 1-.44.43-1.08.68-.64.24-1.36.24Zm.14-1.17q.85 0 1.44-.33.61-.33.92-.89.33-.58.33-1.28v-.61l-2.77.51q-.85.16-1.18.49t-.33.86q0 .59.42.92t1.17.33Z"/>
    <path id="g9" d="M1.28 0v-8.48h1.35l-.01 8.48Zm-.03-9.81v-1.56l1.41-.01v1.57Z"/>
    <path id="g10" d="M1.28 0v-8.48h1.24l.04 2.17-.15-.16q.15-.75.54-1.23.41-.49.97-.72.58-.25 1.24-.25.97 0 1.59.44.64.42.95 1.15t.32 1.63v5.45h-1.35v-5.08q0-.78-.19-1.31t-.59-.81q-.39-.28-1.03-.28-.97 0-1.61.62-.63.61-.63 1.78l.01 5.08Z"/>
    <path id="g11" d="M4.5 2.59q-.92 0-1.66-.31-.73-.3-1.23-.86-.49-.56-.67-1.3l1.42-.09q.19.6.67.94t1.47.34q1.14 0 1.75-.47.63-.45.63-1.39l-.01-1.37q-.29.67-.96 1.08-.68.39-1.5.39-1.08 0-1.93-.52-.84-.53-1.31-1.45-.47-.94-.47-2.14 0-1.22.46-2.13t1.29-1.45 1.89-.53q.89 0 1.6.42.72.41 1 1.11v-1.34h1.28v7.9q0 1-.45 1.71t-1.29 1.09q-.82.37-1.98.37Zm-.03-4.32q1.08 0 1.73-.75.66-.77.68-2.08.01-.88-.29-1.5-.29-.64-.84-.99t-1.28-.34q-1.13 0-1.75.76t-.61 2.07q0 1.31.62 2.08.65.75 1.74.75Z"/>
    <path id="g12" d="M4.59.19q-1.18 0-2.06-.53-.87-.55-1.36-1.55-.47-1-.47-2.34t.47-2.33q.49-1 1.36-1.55.88-.56 2.06-.56.97 0 1.74.34t1.23 1q.49.66.63 1.6l-1.41.11q-.14-.86-.73-1.32t-1.46-.45q-1.17 0-1.82.84-.66.83-.66 2.32 0 1.46.66 2.31.65.83 1.82.83.86 0 1.46-.47.59-.49.73-1.46l1.41.11q-.14.94-.63 1.64-.47.69-1.23 1.08-.77.38-1.74.38Z"/>
    <path id="g13" d="M4.39 0q-1.16 0-1.72-.53-.55-.53-.55-1.64l.01-8.3h1.34v8.27q0 .58.25.79.26.22.8.22h1.21v1.19Zm-3.52-7.3v-1.18h4.86v1.18Z"/>
  </defs>
</svg>