<svg xmlns="http://www.w3.org/2000/svg" width="1200" height="630" viewBox="0 0 1200 630">
  <rect x="0" y="0" width="1200" height="630" fill="#f0f0f0"/>
  <rect x="24" y="24" width="1152" height="582" fill="#f0f0f0"/>
  <g fill="#000">
    <use href="#g0" x="24" y="98"/>
    <use href="#g1" x="88" y="98"/>
    <use href="#g2" x="152" y="98"/>
    <use href="#g3" x="216" y="98"/>
    <use href="#g4" x="280" y="98"/>
    <use href="#g5" x="344" y="98"/>
    <use href="#g6" x="408" y="98"/>
    <use href="#g7" x="472" y="98"/>
    <use href="#g8" x="536" y="98"/>
    <use href="#g9" x="600" y="98"/>
    <use href="#g10" x="664" y="98"/>
    <use href="#g11" x="728" y="98"/>
    <use href="#g12" x="792" y="98"/>
    <use href="#g13" x="856" y="98"/>
    <use href="#g5" x="920" y="98"/>
    <use href="#g14" x="984" y="98"/>
    <use href="#g15" x="1048" y="98"/>
    <use href="#g16" x="1112" y="98"/>
  </g>
  <g fill="#000">
    <use href="#g17" x="24" y="190"/>
    <use href="#g18" x="88" y="190"/>
    <use href="#g7" x="152" y="190"/>
    <use href="#g19" x="216" y="190"/>
    <use href="#g20" x="280" y="190"/>
    <use href="#g21" x="344" y="190"/>
    <use href="#g22" x="408" y="190"/>
    <use href="#g23" x="472" y="190"/>
    <use href="#g9" x="536" y="190"/>
    <use href="#g10" x="600" y="190"/>
    <use href="#g24" x="664" y="190"/>
    <use href="#g25" x="728" y="190"/>
    <use href="#g14" x="792" y="190"/>
    <use href="#g15" x="856" y="190"/>
    <use href="#g26" x="920" y="190"/>
    <use href="#g23" x="984" y="190"/>
    <use href="#g27" x="1048" y="190"/>
    <use href="#g28" x="1112" y="190"/>
  </g>
  <g fill="#000">
    <use href="#g29" x="24" y="282"/>
    <use href="#g30" x="88" y="282"/>
    <use href="#g23" x="152" y="282"/>
    <use href="#g24" x="216" y="282"/>
    <use href="#g31" x="280" y="282"/>
    <use href="#g32" x="344" y="282"/>
    <use href="#g33" x="408" y="282"/>
    <use href="#g25" x="472" y="282"/>
    <use href="#g34" x="536" y="282"/>
    <use href="#g35" x="600" y="282"/>
    <use href="#g36" x="664" y="282"/>
    <use href="#g18" x="728" y="282"/>
    <use href="#g7" x="792" y="282"/>
    <use href="#g37" x="856" y="282"/>
    <use href="#g38" x="920" y="282"/>
    <use href="#g4" x="984" y="282"/>
    <use href="#g39" x="1048" y="282"/>
    <use href="#g15" x="1112" y="282"/>
  </g>
  <g fill="#000">
    <use href="#g6" x="24" y="374"/>
    <use href="#g7" x="88" y="374"/>
    <use href="#g35" x="152" y="374"/>
    <use href="#g40" x="216" y="374"/>
    <use href="#g41" x="280" y="374"/>
    <use href="#g42" x="344" y="374"/>
    <use href="#g43" x="408" y="374"/>
    <use href="#g30" x="472" y="374"/>
    <use href="#g44" x="536" y="374"/>
    <use href="#g45" x="600" y="374"/>
    <use href="#g37" x="664" y="374"/>
    <use href="#g38" x="728" y="374"/>
    <use href="#g46" x="792" y="374"/>
    <use href="#g47" x="856" y="374"/>
    <use href="#g48" x="920" y="374"/>
    <use href="#g39" x="984" y="374"/>
    <use href="#g15" x="1048" y="374"/>
    <use href="#g6" x="1112" y="374"/>
  </g>
  <g fill="#000">
    <use href="#g7" x="24" y="466"/>
    <use href="#g49" x="88" y="466"/>
    <use href="#g50" x="152" y="466"/>
    <use href="#g24" x="216" y="466"/>
    <use href="#g4" x="280" y="466"/>
    <use href="#g5" x="344" y="466"/>
    <use href="#g51" x="408" y="466"/>
    <use href="#g52" x="472" y="466"/>
    <use href="#g8" x="536" y="466"/>
    <use href="#g16" x="600" y="466"/>
    <use href="#g53" x="664" y="466"/>
    <use href="#g48" x="728" y="466"/>
    <use href="#g39" x="792" y="466"/>
    <use href="#g11" x="856" y="466"/>
    <use href="#g12" x="920" y="466"/>
    <use href="#g13" x="984" y="466"/>
    <use href="#g5" x="1048" y="466"/>
  </g>
  <g fill="#000">
    <use href="#g14" x="24" y="558"/>
    <use href="#g15" x="88" y="558"/>
    <use href="#g54" x="152" y="558"/>
    <use href="#g55" x="216" y="558"/>
    <use href="#g10" x="280" y="558"/>
    <use href="#g56" x="344" y="558"/>
    <use href="#g35" x="408" y="558"/>
    <use href="#g37" x="472" y="558"/>
    <use href="#g38" x="536" y="558"/>
    <use href="#g57" x="600" y="558"/>
    <use href="#g32" x="664" y="558"/>
    <use href="#g5" x="728" y="558"/>
    <use href="#g58" x="792" y="558"/>
    <use href="#g30" x="856" y="558"/>
    <use href="#g45" x="920" y="558"/>
    <use href="#g59" x="984" y="558"/>
  </g>
  <use href="#g60" x="1048" y="558" fill="#000"/>
  <defs>
    <path id="g0" d="M11.28-49.42h41.95v53.53h-5.07v-48.69h-31.96v48.99h-4.92Zm3.28 22.17h35.72v4.73h-35.72Zm-.08 22.67h35.91v4.81h-35.91Z"/>
    <path id="g1" d="M4.14-40.27h55.84v4.86h-55.84Zm10.34 28.54h34.96v4.85l-34.96.01Zm14.94-41.97h5.05v58.81h-5.05Zm-4.62 15.04 4.36 1.32q-2.44 6.67-6.04 12.79-3.57 6.11-7.96 11.13-4.38 5.01-9.24 8.37-.37-.61-1.01-1.32-.63-.74-1.28-1.41-.66-.69-1.24-1.16 4.69-2.87 8.97-7.56 4.3-4.69 7.78-10.42t5.66-11.74Zm14.15.19q2.17 5.99 5.66 11.61 3.5 5.61 7.91 10.16 4.4 4.53 9.25 7.33-.61.49-1.33 1.21t-1.36 1.5q-.63.77-1.08 1.44-4.95-3.2-9.36-8.17t-7.98-11.08q-3.58-6.11-6-12.72Z"/>
    <path id="g2" d="M3.19-34.47h30.45v4.47h-30.45Zm34.76-11.67h4.64v35.34h-4.64Zm-21.34-2.24 4.7.01v53.37h-4.7Zm37.05-4.18h4.76v51.28q0 2.5-.69 3.72-.67 1.22-2.2 1.83-1.58.57-4.37.75-2.8.18-7.22.14-.11-.68-.41-1.55-.3-.86-.65-1.77-.35-.89-.74-1.54 3.44.09 6.17.09 2.75.02 3.66-.01.89-.05 1.28-.4.41-.36.41-1.25Zm-24.32-.83 3.55 3.66q-3.67 1.46-8.51 2.68-4.85 1.21-10.07 2.11t-10.11 1.56q-.14-.85-.59-1.95-.44-1.09-.89-1.84 3.53-.53 7.26-1.19 3.75-.67 7.32-1.45 3.56-.78 6.67-1.67 3.11-.91 5.37-1.91Zm-12.89 20.94 3.41 1.47q-1.22 3.62-2.95 7.46t-3.77 7.52q-2.05 3.66-4.28 6.83-2.23 3.15-4.5 5.39-.25-.7-.74-1.5-.48-.81-.96-1.63-.49-.81-.91-1.4 2.13-2.02 4.27-4.8 2.15-2.78 4.14-6.03 1.98-3.27 3.61-6.67t2.68-6.64Zm4.24 6.64q.92.65 2.68 2.12 1.79 1.47 3.82 3.21 2.04 1.71 3.76 3.21 1.72 1.49 2.47 2.15l-2.78 4.03q-.97-1.1-2.62-2.75-1.65-1.68-3.52-3.49-1.88-1.83-3.59-3.4-1.71-1.58-2.85-2.5Z"/>
    <path id="g3" d="M12.53-49.27h41.41v4.61h-41.41Zm0 14.93h41.3v4.54h-41.3Zm-.34 15.29h41.76v4.55h-41.76Zm-2.38-30.22h4.72v23.22q0 3.63-.31 7.82-.31 4.17-1.2 8.42-.88 4.23-2.61 8.15-1.74 3.91-4.63 7.11-.36-.51-1.05-1.14-.68-.61-1.4-1.17t-1.28-.86q2.67-3 4.23-6.51 1.56-3.52 2.31-7.25.75-3.75.99-7.47.23-3.74.23-7.13Zm42.19 0h4.75v47.85q0 2.33-.66 3.55t-2.25 1.85q-1.59.58-4.5.71-2.89.14-7.45.08-.14-.93-.64-2.3t-1.02-2.35q2.27.08 4.35.1t3.61-.02q1.53-.01 2.14-.01.94-.03 1.29-.38.38-.34.38-1.25Zm-22.08 1.75h4.83v52.04h-4.83Z"/>
    <path id="g4" d="M8.72-50.91h51.19v3.69h-51.19Zm27.45 14.93h23.31v3.9h-23.31Zm-21.2 26.78h41.28v3.68h-41.28Zm-4.41 8.9h49.85v3.64h-49.85Zm22.91-12.33 4.65.01.01 14.78h-4.66Zm-26.72-38.28h4.3v22.55q0 3.56-.19 7.77-.17 4.18-.73 8.53-.55 4.33-1.6 8.39-1.05 4.05-2.8 7.44-.37-.36-1.09-.82-.7-.45-1.44-.86-.72-.4-1.26-.62 1.65-3.22 2.62-6.97.99-3.75 1.46-7.73t.59-7.85q.14-3.86.14-7.26Zm11.45 12.91v2.27h12.02v-2.27Zm0-4.52v2.19h12.02v-2.19Zm-3.54-2.42h19.25v11.63h-19.25Zm16.34 13.97h3.84v14.25q0 1.39-.34 2.06-.33.66-1.42 1.08-1.1.33-2.91.41t-4.58.08q-.14-.66-.48-1.43t-.7-1.35q2 .06 3.59.06t2.06 0q.55-.06.74-.24.2-.18.2-.62Zm19.53-12.31 2.83-1.7q1.59 1.39 3.17 3.18t2.42 3.14l-2.98 1.91q-.77-1.36-2.35-3.22-1.56-1.86-3.09-3.31Zm-1.06 9.39q1.22 6 4.03 10.75 2.83 4.75 7.42 6.91-.7.6-1.53 1.6-.81 1.01-1.3 1.85-4.86-2.75-7.76-8.16t-4.28-12.23Zm-4.47-11.58h3.7v9.45q0 2.93-.39 5.97-.37 3.03-1.53 6.05-1.15 3-3.44 5.8-2.28 2.78-6.07 5.22-.49-.68-1.33-1.46t-1.56-1.31q3.53-2.22 5.65-4.75 2.14-2.53 3.22-5.2 1.08-2.69 1.41-5.32.34-2.62.34-5.04Zm-29.39 14.5h17.27l-.01 2.83h-17.26Zm-2.13 0h3.8v7.38q0 1.72-.17 3.7-.17 1.97-.74 3.87-.54 1.91-1.75 3.46-.35-.36-.96-.81-.61-.47-1.25-.86-.63-.4-1.08-.6 1.51-2.01 1.83-4.36t.32-4.51Zm3.16 11.45q3.02-.59 7.08-1.5t8.39-1.87l.44 2.58q-3.86.98-7.64 1.92-3.79.92-7.05 1.7Zm1.58-5.46 1.06-2.07q1.7.3 3.59.71 1.91.4 3.66.84 1.77.42 2.94.83l-.97 2.37q-1.22-.42-2.98-.89-1.77-.48-3.68-.95-1.89-.49-3.62-.84Z"/>
    <path id="g5" d="M12.75-15.39h38.38l-.01 3.25h-38.37Zm.13-7.91h41l-.01 19.08h-41l.01-3.5h36.28v-12.08h-36.29Zm16.37 1.75h4.64v19.32q0 1.61.91 2.11t3.92.5q.59 0 1.97 0t3.17 0 3.61 0 3.31 0q1.52 0 2.27 0 1.73 0 2.59-.54.88-.53 1.24-2.17t.53-4.84q.78.53 1.98.98 1.2.44 2.19.64-.33 3.88-1.11 6t-2.44 2.97q-1.64.85-4.69.85-.48 0-2 0-1.5 0-3.47 0-1.95 0-3.93 0t-3.47 0q-1.5 0-1.99 0-3.56 0-5.59-.54-2.01-.53-2.83-1.96-.81-1.43-.81-4.02Zm-18.84-1.75h4.61v22.43h-4.61Zm-2.75-27.92h48.57v3.45h-48.57Zm21.75.91h4.72l-.01 24.64h-4.71Zm-24.55 6.62h54.37v13.78h-4.79v-10.36h-44.97v10.36h-4.61Zm5.73 14.55q3.05-.36 7.02-.95 3.98-.6 8.26-1.24l.18 3.06q-3.72.79-7.3 1.52-3.56.72-6.72 1.31Zm1.63-7.28 1.44-2.61q2.09.36 4.4.92t4.44 1.2q2.14.64 3.55 1.28l-1.39 2.91q-1.41-.64-3.54-1.34t-4.45-1.33-4.45-1.03Zm37.59-2.94 2.13 2.81q-1.81.75-4.05 1.44-2.22.67-4.47 1.24-2.23.54-4.08.92l-1.72-2.46q1.85-.43 4.08-1.12 2.25-.7 4.41-1.47 2.16-.78 3.7-1.36Zm-13.01 10.63 1.15-2.94q2.49.25 5.28.76 2.8.52 5.36 1.14 2.58.63 4.35 1.24l-1.05 3.3q-1.75-.65-4.34-1.3t-5.39-1.25q-2.8-.61-5.36-.95Z"/>
    <path id="g6" d="M2.7-50.16h19.1v4.02h-19.1Zm6.19 19.19h12.06v27.95h-12.06v-3.9h8.22v-20.11h-8.22Zm1-17.09 4.09.62q-.82 6.52-2.15 12.67-1.33 6.16-3.25 11.52t-4.64 9.55q-.16-.55-.57-1.38-.39-.83-.85-1.69-.46-.87-.83-1.37 2.29-3.61 3.86-8.38t2.64-10.26q1.06-5.52 1.7-11.28Zm-2.84 17.09h3.76v33.19h-3.76Zm15.86-11.26h38.36v4.37h-38.36Zm5.97-9.77 3.79-1.53q1.66 2.25 3.11 4.94 1.45 2.67 2.17 4.7l-4.06 1.83q-.66-2.03-2.11-4.83-1.44-2.81-2.91-5.11Zm5.12 40.78 3.33-.64q.84 2.36 1.61 5.13.78 2.75 1.37 5.34.61 2.59.88 4.69l-3.49.73q-.22-2.08-.81-4.72-.58-2.64-1.33-5.4-.73-2.77-1.56-5.13Zm16.33-42.58 4.65 1.52q-1.5 3.11-3.26 6.51t-3.31 5.77l-3.68-1.34q.96-1.71 2-3.88 1.05-2.17 2.02-4.44t1.58-4.14Zm3.4 42.43 3.4-.86q1.15 2.42 2.12 5.18t1.7 5.43q.74 2.64 1.08 4.7l-3.58.92q-.33-2.11-1.06-4.77-.72-2.67-1.66-5.43t-2-5.18Zm-30.31-5.36q-.08-.46-.33-1.21-.25-.76-.53-1.54t-.56-1.35q.69-.17 1.34-.92.66-.77 1.3-1.98.49-.8 1.5-2.88 1.03-2.08 2.17-4.89 1.14-2.83 1.86-5.66l4.08 1.77q-1.66 4.41-3.89 8.76-2.22 4.36-4.52 7.57v.06q0 0-.59.39-.59.38-1.22.91-.61.53-.61.97Zm0 0-.08-3.38 2.16-1.31 10.69-.89q-.16.86-.25 1.95-.08 1.08-.1 1.78-3.65.38-5.92.66-2.26.26-3.55.47-1.28.2-1.92.37t-1.03.35Zm-.8 19.07q-.1-.42-.37-1.17-.25-.73-.53-1.53-.27-.8-.55-1.36 1-.2 2.08-1.55 1.09-1.36 2.41-3.42.75-1.03 2.11-3.34 1.37-2.33 3.09-5.55t3.45-6.89q1.74-3.69 3.1-7.34l4.03 1.75q-2.21 5.06-4.83 10.12-2.63 5.05-5.47 9.6-2.83 4.54-5.69 8.23v.13q0 0-.42.23t-1 .59q-.58.38-1 .77-.41.41-.41.73Zm0 0-.15-3.43 2.19-1.41 14.01-1.91q-.09.88-.14 1.94-.05 1.05.02 1.74-4.85.76-7.83 1.26-2.97.52-4.58.83-1.59.31-2.34.52-.74.21-1.17.46Zm19.36-19.18q-.07-.49-.34-1.24t-.55-1.58-.54-1.34q.64-.2 1.23-.98t1.24-2q.42-.77 1.34-2.86.92-2.11 1.91-4.89t1.6-5.63l4.16 1.8q-.94 2.92-2.17 5.87-1.22 2.96-2.61 5.63-1.38 2.65-2.81 4.76v.13q0 0-.61.39-.61.37-1.24.92-.61.55-.61 1.02Zm0 0-.07-3.39 2.18-1.32 10.66-.87q-.16.86-.25 1.95-.08 1.08-.09 1.77-3.66.37-5.93.65-2.26.27-3.54.47t-1.92.38q-.65.17-1.04.36Zm.27 19.11q-.11-.47-.38-1.24-.24-.76-.54-1.58-.28-.83-.56-1.39.96-.2 1.98-1.56 1.02-1.38 2.27-3.47.68-1.01 1.95-3.36t2.84-5.58q1.58-3.23 3.13-6.92 1.56-3.69 2.78-7.36l4.2 1.71q-1.98 5.07-4.4 10.15t-5.07 9.69q-2.64 4.61-5.36 8.37v.13q0 0-.43.23-.44.25-1 .61-.55.38-.99.78-.42.43-.42.79Zm.03 0-.15-3.47 2.14-1.43 14.5-1.98q-.15.88-.18 1.95-.03 1.08.03 1.77-4.98.77-8.04 1.27-3.06.51-4.71.84-1.64.34-2.4.56-.77.24-1.19.49Z"/>
    <path id="g7" d="M2.89-49.63l22.8.01v4.43h-22.8Zm6.58 18.99h14.17v27.28h-14.17v-4.22h9.94v-18.78h-9.94Zm1.15-17.13 4.6.66q-.91 6.66-2.3 12.92-1.37 6.27-3.39 11.69-2 5.42-4.81 9.63-.27-.54-.8-1.35t-1.11-1.62q-.56-.82-1.03-1.3 2.47-3.69 4.16-8.53 1.7-4.85 2.84-10.5 1.16-5.66 1.85-11.6Zm-3.1 17.13h4.14v32.73h-4.14Zm19.87-17.8h33.3v3.86h-33.3Zm-1.56 36.06 35.7.01v3.75l-35.7-.01Zm15.44-40.68h4.45v34.98h-4.45Zm-8.36 21.79v4.07h21.32v-4.07Zm0-6.9v3.98h21.32v-3.98Zm-4.21-3h29.93l-.01 17.01h-29.92Zm-2.48 21.44q3.89-.05 8.98-.08 5.11-.05 10.86-.16t11.58-.22l-.14 3.44q-5.61.2-11.2.39-5.58.17-10.64.31t-9.14.27Zm21.3 3.14h4.48v16.87q0 1.74-.42 2.69-.41.95-1.67 1.47-1.28.5-3.27.59t-5 .09q-.14-.85-.58-1.99-.42-1.13-.87-2.02 2.23.06 3.97.06t2.32-.04q.66-.04.85-.24.19-.19.19-.7Zm-16.82 10.37 3.24-2.22q2.04 1.61 3.98 3.63 1.96 2.01 2.99 3.54l-3.39 2.58q-1.05-1.64-2.97-3.76-1.92-2.14-3.85-3.77Zm18.92-16.64 3.26-1.87q2.48 1.82 5.06 4.21t4 4.24l-3.42 2.08q-.86-1.27-2.33-2.78-1.47-1.52-3.19-3.07-1.7-1.56-3.38-2.81Z"/>
    <path id="g8" d="M23.95-20.89h37.33v4.31h-37.33Zm14.63-27.45h17.69l-1.11 3.5h-18.77Zm9.76 18.42h4.61v28.75q0 1.95-.53 3.08t-2 1.76q-1.4.56-3.87.69-2.46.14-6.32.14-.12-1-.54-2.3t-.97-2.33q2.89.07 5.22.08t3.11-.01q.78-.05 1.03-.28.26-.24.26-.85Zm-6.89-23.92 4.63 1.4q-2.28 3-5.5 5.85-3.21 2.84-6.94 5.25-3.72 2.39-7.67 4.2-.33-.44-.88-1t-1.11-1.09q-.56-.55-1.04-.9 3.87-1.57 7.39-3.79t6.39-4.77q2.89-2.56 4.73-5.15Zm-12.79 40.97 3.7-2.16q1.64 1.51 3.28 3.36 1.64 1.83 3.03 3.64 1.41 1.8 2.21 3.28l-3.94 2.52q-.74-1.52-2.08-3.36-1.34-1.86-2.97-3.77t-3.23-3.52Zm5.62-30.6 3.08-2.12q1.94 1.47 3.87 3.31 1.96 1.84 3.63 3.69 1.69 1.84 2.64 3.43l-3.23 2.38q-.94-1.58-2.57-3.47-1.61-1.89-3.53-3.78-1.92-1.91-3.89-3.44Zm-26.92 8.19h12.28v4.22h-12.28Zm-4.78 13.65h16.83v4.27h-16.83Zm14.8-32.07h4.48v58.81h-4.49Zm-12.07 2.45h4.3v20.19h-4.3Zm.78 31.25h4.25v4.17q0 2.08-.17 4.71-.17 2.62-.67 5.48-.48 2.84-1.41 5.64-.9 2.81-2.37 5.23-.39-.43-1.08-.86-.67-.42-1.36-.82-.67-.41-1.23-.66 1.76-2.92 2.62-6.36t1.14-6.72q.28-3.29.28-5.78Zm48.47-28.34h.89l.82-.21 2.95 1.47q-2.1 5.24-5.55 9.39-3.44 4.14-7.83 7.3-4.37 3.16-9.28 5.39-4.9 2.22-10.01 3.64-.35-.81-1.05-1.87t-1.34-1.74q4.75-1.11 9.39-3.11 4.64-2.01 8.75-4.86t7.28-6.51q3.19-3.66 4.98-8.1Zm-30.28 13.7q2.7-.28 6.19-.72 3.5-.45 7.39-.94l.25 3.39q-3.52.5-6.83.97-3.31.46-6.23.89Z"/>
    <path id="g9" d="M7.45-51.41h10.85v4.39h-10.85Zm-1.79 0h3.92v23.05q0 3.67-.13 8-.12 4.31-.53 8.83-.4 4.5-1.23 8.75-.82 4.25-2.16 7.86-.34-.35-1-.7-.66-.36-1.34-.74-.69-.36-1.19-.52 1.28-3.4 2.02-7.42t1.09-8.22q.34-4.18.44-8.25.11-4.06.11-7.53Zm9.95 0h4.03v51.19q0 1.72-.41 2.75-.39 1.05-1.39 1.61-1.04.55-2.7.69-1.66.15-4.27.15-.06-.84-.45-2.12-.37-1.27-.83-2.13 1.78.08 3.18.08t1.9-.04q.94 0 .94-1.02Zm15.89 10.58 3.97 1.1q-1.89 6.18-5.03 11.59-3.13 5.41-7.28 9.01-.55-.68-1.39-1.57-.83-.91-1.61-1.47 3.75-3.05 6.75-8.05 3.01-5 4.59-10.61Zm-4-11.5 4.02.94q-1.25 4.36-3.27 8.5-2 4.12-4.34 7.01-.33-.32-.96-.81-.61-.48-1.25-.94t-1.12-.74q2.3-2.61 4.08-6.3 1.79-3.71 2.84-7.66Zm6.73 1.35 3.55-1.25q1.42 2.23 2.75 4.81 1.35 2.58 2.39 5 1.06 2.42 1.6 4.28l-3.74 1.48q-.48-1.86-1.53-4.34-1.03-2.48-2.34-5.11t-2.68-4.87Zm-9.57 30.76h16.5v24.31h-3.94v-20.01h-8.74v20.28h-3.82Zm1.37 16.47h13.14v4.2h-13.14Zm29.19-46.34h3.97v39.84q0 1.47-.31 2.42t-1.33 1.5q-.96.52-2.41.66-1.45.12-3.47.12-.08-.79-.45-1.97t-.85-2.01q1.44.06 2.58.06 1.16 0 1.53-.03.74 0 .74-.83Zm-9.75 0h12.01v4.18h-8.18v50.93h-3.83Zm-14.42 14.61 3.09-2.11q2.06 2.48 4.22 5.4 2.17 2.92 4.01 5.69 1.86 2.77 2.94 4.86l-3.23 2.53q-1.06-2.17-2.89-5-1.81-2.84-3.96-5.83-2.12-3-4.18-5.54Zm-21.97 17.64q1.7-1.1 3.92-2.74t4.66-3.45l1.36 2.89q-1.99 1.83-3.96 3.62t-4 3.57Zm-.2-18.22 2.68-1.91q1.49 1.41 2.92 3.13 1.44 1.72 2.24 3l-2.81 2.22q-.75-1.32-2.21-3.16-1.45-1.85-2.82-3.28Z"/>
    <path id="g10" d="M18.66-26.89l4.57 1.58q-1.73 2.97-4.04 5.87-2.3 2.89-4.85 5.47t-5.04 4.56q-.39-.47-1.03-1.15t-1.33-1.39-1.25-1.1q3.61-2.56 7.15-6.23 3.55-3.67 5.82-7.61Zm31.78.56 4.54 2.17q-3.12 6.22-7.78 11.02-4.64 4.8-10.78 8.3t-13.81 5.86q-7.66 2.36-16.84 3.76-.36-1.08-1.04-2.36-.67-1.28-1.45-2.22 11.91-1.64 21.11-4.9t15.72-8.61 10.33-13.02Zm-46.63-7.87h56.14v4.58h-56.14Zm29.61-12.72h20.71l-.01 4.51h-20.7Zm-3.25-6.83h5.1v22.06h-5.1Zm-16.75 4.97h4.88v16.83h-4.88Zm16.36 17.94h5.06v21.48h-5.06Z"/>
    <path id="g11" d="M29.47-49.05h31.25v3.8h-31.25Zm-.7 35.86h32.71v3.77h-32.71Zm13.92-40.51h4.25v34.48h-4.25Zm-7.75 21.7v3.95h20.17v-3.95Zm0-6.8v3.89h20.17v-3.89Zm-3.97-3h28.26v16.8h-28.26Zm-2.14 21.18q3.59-.07 8.25-.13 4.65-.08 9.97-.17t10.73-.22l-.11 3.53q-5.22.16-10.37.28t-9.8.2q-4.63.1-8.36.19Zm20.37 3.98h4.46v17.08q0 1.76-.44 2.7-.44.95-1.83 1.42-1.36.49-3.5.58-2.14.11-5.42.11-.13-.92-.55-2.02-.4-1.07-.84-1.98 2.45.06 4.39.09 1.95.03 2.59 0 .71-.06.92-.28.22-.2.22-.72Zm-16.65 9.75 3.28-1.94q1.92 1.6 3.67 3.69 1.75 2.08 2.67 3.75l-3.58 2.3q-.79-1.71-2.5-3.91-1.68-2.2-3.54-3.89Zm18.42-16.92 3.19-1.67q2.25 1.89 4.4 4.28 2.17 2.39 3.31 4.22l-3.42 2q-1.04-1.91-3.2-4.4-2.14-2.5-4.28-4.43Zm-47.66-22.99h24.85v4.27h-24.85Zm-.84 36.47h26.56v4.27h-26.56Zm11.34-43.44h4.38v17.55h-4.38Zm.46 17.74h3.46v18.64h.46v22.59h-4.38v-22.59h.46Zm-5.88 11.03v5.88h15.33v-5.88Zm0-9.22v5.77h15.33v-5.77Zm-3.66-3.59h22.71v22.28h-22.71Z"/>
    <path id="g12" d="M31.27-52.73h4.62v47.06q0 1.7.3 2.62.31.92 1.2 1.27.91.34 2.53.34.63 0 2.17 0 1.57 0 3.49 0t3.56 0q1.66 0 2.45 0 1.83 0 2.74-1.17.92-1.19 1.33-4.17t.62-8.47q.94.66 2.19 1.25t2.22.83q-.33 6-1.11 9.53-.77 3.52-2.53 5.03-1.77 1.53-5.25 1.53-.46 0-1.69 0-1.22 0-2.83 0t-3.22 0-2.84 0q-1.22 0-1.61 0-3.22 0-5.05-.75-1.81-.73-2.56-2.64-.73-1.92-.73-5.33Zm-11.36-.8 4.45 1.5q-2.34 5.44-5.5 10.7t-6.81 9.89q-3.64 4.61-7.49 8.17-.23-.56-.73-1.48-.49-.92-1.02-1.83t-.98-1.48q3.56-3.07 6.92-7.13t6.23-8.75q2.88-4.7 4.93-9.59Zm-6.63 15.64 4.53-4.5.08.06v47.46l-4.61-.01Zm20.69 2.69h24.84v4.61h-24.84Z"/>
    <path id="g13" d="M13.5-19.67h43.58v4.22h-43.58Zm-8.27-23.14h41.83v4.42h-41.83Zm18.02 11.54h29.34v4.27h-29.34Zm31.78 11.6h4.78q0 0-.03.39-.03.37-.06.87-.02.49-.08.82-.56 6.73-1.2 10.97-.63 4.23-1.42 6.59-.79 2.34-1.82 3.39-.86.94-1.89 1.3-1.01.36-2.45.47-1.2.1-3.42.09t-4.69-.16q-.06-.98-.44-2.23-.36-1.25-.94-2.19 2.43.24 4.52.3 2.11.06 2.99.03.89 0 1.43-.13.55-.11.97-.51.78-.74 1.41-2.81.62-2.1 1.22-6.1t1.12-10.36Zm-14.22 7.67 3.36-1.25q1.55 1.94 2.91 4.34 1.37 2.41 1.98 4.14l-3.54 1.5q-.6-1.76-1.94-4.23-1.33-2.48-2.77-4.5Zm-27.69-39.86 4.19-1.73q1.91 1.9 3.75 4.34 1.86 2.42 2.83 4.27l-4.45 2.04q-.83-1.87-2.64-4.37-1.8-2.52-3.67-4.55Zm8.72 41.44 3.94-.5q.97 3.01 1.45 6.61.5 3.59.5 6.19l-4.23.6q.09-1.71-.11-3.93t-.58-4.55q-.37-2.34-.97-4.42Zm9.44-.58 3.75-.86q1.28 2.63 2.33 5.72 1.06 3.08 1.45 5.33l-3.98 1.08q-.33-2.32-1.36-5.47-1.03-3.18-2.19-5.8Zm-17.64-.86 4.05 1.31q-.74 2.66-1.77 5.46-1.01 2.79-2.45 5.32-1.44 2.55-3.36 4.52l-3.73-2.58q1.81-1.72 3.2-4.05 1.4-2.34 2.42-4.93t1.64-5.05Zm18.91-41.95 4.84 1.23q-2.14 6.71-5.19 13.14-3.03 6.42-7.04 12.24-4 5.81-9.13 10.78-5.12 4.95-11.47 8.69-.26-.57-.73-1.33t-.97-1.49-.94-1.25q5.97-3.39 10.81-8.03 4.85-4.65 8.63-10.17t6.56-11.56q2.8-6.06 4.63-12.25Zm13.45 11h4.53q-.67 3.33-1.47 6.97t-1.51 6.26l-4.28-.61q.73-2.56 1.46-6.04.75-3.49 1.27-6.58Zm4.78 11.54h4.53q-.64 3.35-1.4 7.02-.77 3.66-1.49 6.23l-4.34-.48q.72-2.59 1.48-6.14.78-3.55 1.22-6.63Z"/>
    <path id="g14" d="M24.88-30.98h4.54v30.89q0 1.78-.47 2.76-.45 1-1.72 1.55-1.29.48-3.4.58-2.1.11-5.13.11-.14-.86-.61-2.02-.45-1.14-.93-1.95 2.26.06 4.11.06 1.85.02 2.53-.02.67 0 .87-.23.2-.22.2-.83Zm-15.58 0h17.97v4.12h-17.97Zm26 7.1h4.72v21.63q0 1.56.67 2.05.69.48 2.98.48.52 0 1.91 0 1.4 0 3.14 0t3.26 0 2.24 0q1.34 0 2.03-.58t.95-2.31q.28-1.75.42-5.22.82.55 2.07 1.06 1.25.52 2.25.74-.3 4.17-1 6.47-.69 2.29-2.17 3.2-1.49.92-4.16.92-.44 0-1.59 0-1.16 0-2.66 0-1.49 0-3 0t-2.64 0q-1.14 0-1.55 0-3.09 0-4.83-.58t-2.39-2.06-.65-4.14Zm-13.91-23.73 3.92-1.53q1.6 2.22 3.21 4.81 1.62 2.6 3.01 5.08t2.19 4.39l-4.14 1.88q-.72-1.94-2.06-4.49t-2.94-5.2q-1.6-2.67-3.19-4.94Zm16.66 2.77h19.31v4.23h-19.31Zm.03 28.61h19.98v4.39h-19.98Zm-31.78-18.75q-.11-.5-.39-1.33t-.6-1.71q-.29-.87-.56-1.48.78-.17 1.59-.83t1.78-1.7q.68-.7 2.11-2.52 1.44-1.81 3.1-4.23 1.67-2.44 3-5.02l4.87 1.61q-1.73 2.78-3.73 5.47-1.99 2.67-4.06 5.05t-4.08 4.17v.09q0 0-.47.25-.45.25-1.05.63-.59.36-1.06.78-.45.42-.45.77Zm0 0-.13-3.6 2.6-1.5 20.07-1.39q.13.95.39 2.06.27 1.1.52 1.85-7.3.61-11.7 1t-6.75.69q-2.36.28-3.41.46-1.03.19-1.59.43Zm.72 4h4.45v15.79q0 3.14-.38 6.81t-1.47 7.22q-1.07 3.54-3.32 6.39-.3-.51-.91-1.15t-1.26-1.27q-.66-.62-1.16-.9 1.86-2.49 2.7-5.41t1.1-5.98q.25-3.07.25-5.75Zm3.82 23.93q2.97-1.31 7.07-3.32 4.09-2.04 8.32-4.21l.94 3.13q-3.76 2.26-7.55 4.5-3.78 2.22-7.03 4.03Zm1.18-13.75 2.5-2.39q1.71.99 3.65 2.22 1.94 1.22 3.69 2.38 1.76 1.15 2.91 2.06l-2.58 2.75q-1.11-.97-2.85-2.2t-3.67-2.5q-1.94-1.29-3.65-2.32Zm23.28-32.92h4.72v20.36q0 1.75.53 2.45.54.69 2.11.69.68 0 2.31 0t3.55 0q1.93 0 3.59 0 1.67 0 2.39 0 1.16 0 2.78-.09 1.63-.11 2.55-.28.08.97.22 2.15.14 1.19.26 2.02-.81.19-2.39.28-1.56.08-3.31.08-.58 0-1.86 0-1.27 0-2.84 0t-3.1 0-2.69 0-1.56 0q-2.81 0-4.39-.72t-2.23-2.33q-.64-1.62-.64-4.36Z"/>
    <path id="g15" d="M32.19-34q2.73 0 4.92 1.33 2.19 1.31 3.5 3.51 1.33 2.19 1.33 4.91 0 2.66-1.33 4.88-1.31 2.21-3.5 3.54t-4.92 1.33q-2.67 0-4.89-1.33-2.21-1.33-3.53-3.55-1.33-2.21-1.33-4.87 0-2.72 1.33-4.91t3.54-3.51q2.22-1.33 4.88-1.33Zm.01 16.23q2.71 0 4.58-1.89 1.89-1.9 1.89-4.61 0-1.78-.86-3.25t-2.33-2.34-3.28-.87q-1.76 0-3.23.87t-2.38 2.34q-.89 1.47-.89 3.27 0 1.78.89 3.27.91 1.48 2.36 2.35 1.47.86 3.25.86Z"/>
    <path id="g16" d="M20.08-46.19h40.56v3.81l-40.56.01Zm5.05 16.78h30.01v3.63h-30.02Zm0-8.43h30.01v3.64h-30.02Zm3.85 20.56v7.97h21.72v-7.97Zm-4.56-3.69h31.02v15.34l-31.02.01Zm10.05-31.75 4.44-1.8q1.36 1.5 2.79 3.47 1.46 1.97 2.25 3.38l-4.64 2.04q-.69-1.42-2.09-3.45-1.39-2.04-2.75-3.64Zm-29.13 1.17 3.6-2.14q1.48 1.55 3.03 3.35 1.56 1.78 2.95 3.47 1.41 1.67 2.25 2.99l-3.69 2.6q-.85-1.36-2.25-3.14-1.37-1.8-2.9-3.67-1.53-1.89-2.99-3.46Zm-2.31 12.57h14.02v4.01h-14.02Zm11.42 29.32q2 4.21 5.41 6.25 3.42 2.04 8.33 2.66t11.25.66q3.37 0 7.39-.1t8.03-.29q4-.21 7.25-.47-.36.5-.69 1.33t-.56 1.7q-.22.87-.36 1.58-2.98.14-6.55.28-3.56.14-7.28.18-3.72.05-7.26.05-5.61 0-10.07-.47-4.43-.45-7.84-1.73-3.41-1.27-5.95-3.7-2.53-2.44-4.33-6.41Zm.85-13.36h1.15l.82-.1 2.39.89q-1.64 10.23-5.49 17.04-3.83 6.82-9.19 10.46-.29-.52-.89-1.16-.57-.63-1.18-1.24t-1.11-.9q5.12-3.27 8.65-9.33t4.85-14.83Zm-11.39 4.82v-3.69l2.29-1.13h10.69l-.01 3.91h-9.15q-1.23 0-2.34.27t-1.48.64Zm0 0q-.11-.58-.47-1.39-.35-.83-.69-1.66t-.61-1.28q.72-.2 1.48-.61.79-.41 1.63-1.36.78-.72 2.17-2.48 1.39-1.79 3-3.96 1.63-2.18 3.05-4.23 1.44-2.06 2.26-3.33v-.17l1.46-.63 3.17 1.5q-1.17 1.63-2.78 3.85-1.61 2.2-3.41 4.54-1.78 2.35-3.5 4.52-1.7 2.16-3.12 3.69 0 0-.55.29t-1.28.77q-.72.47-1.27.97t-.54.97Z"/>
    <path id="g17" d="M10.8-15.2h43.2v4.64h-43.2Zm-7.21 13.98h56.88v4.75h-56.88Zm15.64-41.53h12.74v4.34h-12.74Zm16.05-11h4.78v25.25q0 1.67.61 2.17.63.49 2.81.49.47 0 1.85 0t3.03 0 3.12 0 2.18 0q1.22 0 1.81-.55.61-.55.87-2.19.28-1.65.38-4.84.56.39 1.33.78.78.37 1.61.67t1.5.45q-.28 3.96-1 6.19-.71 2.24-2.16 3.13-1.44.89-4 .89-.39 0-1.53 0t-2.6 0q-1.45 0-2.9 0-1.44 0-2.52 0t-1.47 0q-3.04 0-4.71-.63t-2.33-2.2q-.66-1.59-.66-4.38Zm-32.61 29.63q3.72-.4 8.55-.93t10.26-1.18q5.44-.68 10.9-1.35l.1 4.44q-5.23.67-10.5 1.36t-10.06 1.3q-4.8.59-8.67 1.1Zm14.42-29.63h4.72v29.31l-4.72.5Zm-10.17 7h4.46l-.01 23.45-4.45.49Zm30.8 4.06h19.11v4.35h-19.11Z"/>
    <path id="g18" d="M18.91-16.5h26.25v3.69h-27.35Zm23.67 0h4.84v15.08q0 1.2.38 1.53t1.73.33q.31 0 1.08 0 .78 0 1.72 0 .95 0 1.78 0 .84 0 1.23 0 .89 0 1.33-.55.44-.56.61-2.23.19-1.69.25-5.04.81.6 2.05 1.1t2.2.73q-.23 3.99-.81 6.19-.56 2.22-1.78 3.08-1.21.86-3.33.86-.41 0-1.39 0t-2.14 0-2.14 0-1.38 0q-2.39 0-3.75-.52-1.36-.5-1.92-1.81-.56-1.3-.56-3.63Zm-37.97-8.84h54.84v3.93h-54.84Zm24.61-22.97h26.91l-.01 4.17h-26.9Zm1.45-5.63 4.47 1.02q-1.67 4.86-4.39 9.22-2.7 4.34-5.73 7.36-.41-.41-1.13-.91t-1.47-1q-.73-.5-1.3-.78 3.13-2.72 5.61-6.64 2.5-3.94 3.94-8.27Zm6.83 7.69h4.53v2.59q0 2.22-.64 4.71-.64 2.47-2.72 4.89-2.06 2.42-6.23 4.56t-11.21 3.73q-.39-.85-1.21-1.92-.83-1.06-1.55-1.72 6.55-1.37 10.37-3.14 3.85-1.78 5.68-3.75t2.4-3.89q.58-1.92.58-3.61Zm-33-2.48h15.42v4.12h-15.42Zm-1.42 12.28h18.47v4.25h-18.47Zm51.36-11.86h.83l.78-.24 3.36 1.13q-1.22 2.84-2.63 5.78t-2.72 4.98l-3.95-1.37q1.09-1.91 2.28-4.53 1.2-2.64 2.05-5.05Zm-16.47 11.34 2.12-3.33q2.3 1.07 4.97 2.39 2.69 1.32 5.35 2.66t5.01 2.58q2.36 1.22 4.02 2.23l-2.16 3.96q-1.64-1.05-3.95-2.36-2.31-1.33-4.97-2.75-2.64-1.44-5.33-2.82-2.67-1.37-5.06-2.56Zm-19.75 14.05h4.95q-.81 2.97-1.81 6.33t-2.03 6.67-2 6.33q-.97 3-1.8 5.31h-5.06q.92-2.39 1.95-5.42 1.05-3.05 2.1-6.38 1.04-3.34 2-6.64.95-3.3 1.7-6.2Zm.17 11.58q1.06.17 2.95.54 1.91.38 4.21.85t4.53.95q2.25.48 4.03.89t2.62.64l-1.29 3.81q-1.28-.5-3.74-1.21-2.43-.74-5.25-1.55-2.81-.81-5.36-1.5-2.53-.69-4.07-1.1Zm-12.36 11.67q3.95-.19 9.2-.5 5.25-.33 11.18-.69 5.92-.37 11.89-.77l-.07 3.71q-5.62.47-11.34.92-5.7.45-10.89.84-5.17.39-9.3.74Z"/>
    <path id="g19" d="M23.84-44.25h36.85v4.47h-36.85Zm1.74 10.69h31.34v4.28h-26.9v34.3h-4.44Zm29.22 0h4.51v33.76q0 1.77-.45 2.71-.44.95-1.66 1.5-1.18.51-3.22.61-2.01.09-5.03.04-.09-.81-.45-1.94-.34-1.1-.77-1.93 2.1.06 3.79.06t2.29-.03q.99 0 .99-1.03Zm-15.08-20.21h4.51v58.27h-4.51Zm-12.58 30.88h30.42v4.08h-30.42Zm0 10.7h30.42v4.08h-30.42Zm19.75-37.92 2.31-3.01q1.71.84 3.63 1.87 1.94 1.03 3.75 2.05t3 1.79l-2.39 3.43q-1.14-.85-2.92-1.91-1.77-1.08-3.72-2.2t-3.66-2.02Zm-45.08 30.38q2.78-.71 6.3-1.69 3.53-1 7.45-2.16 3.94-1.17 7.86-2.3l.63 4.3q-5.57 1.74-11.13 3.47t-10.09 3.09Zm.86-21.16h20.71v4.51l-20.71.01Zm8.91-12.86h4.62v53.31q0 2-.51 3.07t-1.74 1.64q-1.25.54-3.29.7-2.03.17-5.22.14-.11-.91-.57-2.16-.43-1.23-.87-2.22 2.17.08 3.95.08 1.8.02 2.41-.01.66 0 .94-.28.28-.27.28-.94Z"/>
    <path id="g20" d="M1.81-19.59q3.85-1.07 9.33-2.72 5.48-1.67 11.09-3.46l.65 4.41q-5.18 1.7-10.4 3.39-5.2 1.67-9.45 3.05Zm.8-21.27h20.09v4.49l-20.09-.01Zm7.95-12.86h4.53v53.06q0 1.96-.48 3.05-.48 1.11-1.67 1.69-1.16.59-3.1.76t-4.98.14q-.09-.9-.5-2.21-.39-1.3-.89-2.33 2.05.06 3.72.08 1.69.01 2.26-.04.58 0 .85-.25.26-.23.26-.9Zm30.78 33.95h17.94v4.29h-17.94Zm-11.06 4.57q1.24 4.87 3.2 7.87 1.99 2.99 4.55 4.56 2.58 1.57 5.67 2.11 3.11.55 6.63.55.61 0 2.19 0t3.51 0 3.63-.03 2.53-.05q-.47.8-.91 2-.42 1.22-.56 2.11h-2.45-8.16q-4.19 0-7.72-.69t-6.42-2.56q-2.88-1.87-5.06-5.47t-3.61-9.37Zm9.31-16.96h4.63v34.79l-4.63-1.4Zm-11.75 9.46 4.54.29q-.76 9.27-3.15 16.14t-7.35 11.38q-.33-.42-.99-1.02-.64-.57-1.36-1.15t-1.25-.91q4.74-3.91 6.84-10.19 2.13-6.28 2.72-14.54Zm3.55-23.8v12.58h21.02v-12.58Zm-4.51-4.16h30.18v20.94h-30.19Z"/>
    <path id="g21" d="M4.61-44.81h55.23v4.67h-55.23Zm24.7-8.89h5.02v58.81h-5.02Zm.58 28.36 4.05 1.62q-2.38 4.09-5.53 7.94t-6.86 7.22-7.71 6.11q-4 2.72-8.06 4.65-.36-.64-.97-1.4-.59-.75-1.22-1.47t-1.2-1.22q4.03-1.64 8.02-4.13 3.98-2.48 7.62-5.56 3.64-3.09 6.67-6.61t5.19-7.15Zm4.22.15q2.81 4.91 7.16 9.44 4.35 4.52 9.64 8.11 5.29 3.58 10.79 5.67-.61.5-1.28 1.28-.65.77-1.26 1.57-.6.79-1 1.48-5.5-2.47-10.8-6.45t-9.75-8.97q-4.44-5-7.53-10.49Zm-20.95-3.48 3.17-2.92q1.53 1.26 3.22 2.82 1.7 1.57 3.25 3.04t2.51 2.64l-3.29 3.31q-.94-1.19-2.46-2.74-1.5-1.54-3.18-3.17t-3.22-2.98Zm2.68-9.97 4.69.87q-1.67 6.97-4.95 12.58-3.28 5.6-7.74 9.28-.37-.43-1.06-1.03t-1.42-1.17-1.28-.91q4.39-3.28 7.36-8.34t4.4-11.28Zm28.13 10.12 3.2-2.82q2.14 1.61 4.61 3.62 2.49 2.02 4.72 3.97t3.67 3.42l-3.39 3.31q-1.34-1.51-3.53-3.53t-4.66-4.11q-2.45-2.11-4.62-3.86Zm2.19-10.12 4.64.81q-1.27 6-3.77 10.94-2.48 4.94-5.94 8.28-.42-.41-1.17-.89-.73-.5-1.53-.98-.78-.5-1.36-.79 3.52-2.98 5.8-7.48t3.33-9.89Z"/>
    <path id="g22" d="M13.67-30.84h37.19v4.51h-37.19Zm0 13.92h37.19v4.48h-37.19Zm0 13.98h37.19v4.52h-37.19Zm-3.25-42.08h44.14v49.88h-5v-45.28h-34.29v45.59h-4.85Zm18.72-8.87 5.58.76q-1.06 2.86-2.24 5.77-1.17 2.89-2.25 4.99l-4.28-.83q.6-1.52 1.21-3.41t1.15-3.8.83-3.48Z"/>
    <path id="g23" d="M29.8-53.47l4.73 1.05q-1.25 5.08-3 9.95-1.73 4.88-3.84 9.14t-4.58 7.5q-.41-.4-1.13-1-.7-.59-1.45-1.17t-1.33-.92q2.42-2.99 4.41-6.91 2-3.94 3.56-8.45 1.58-4.52 2.63-9.19Zm-1.08 27.11 4.69.95q-.99 4.21-2.46 8.22t-3.23 7.52q-1.75 3.48-3.72 6.17-.44-.38-1.2-.89t-1.55-.99q-.78-.46-1.38-.73 3-3.72 5.24-9.09 2.25-5.39 3.61-11.16Zm.47-15.05h28.83v4.47h-30.65Zm9.95 1.82h4.77v38.87q0 2.02-.5 3.17t-1.83 1.75q-1.3.6-3.39.78-2.1.19-5.1.19-.17-1.03-.67-2.45-.5-1.41-1.06-2.41 2.3.07 4.17.07 1.89 0 2.53-.04.61 0 .85-.22.23-.2.23-.84Zm9.39 14.18 4.31-1.4q1.86 3.37 3.47 7.23t2.81 7.6q1.21 3.71 1.74 6.67l-4.58 1.58q-.5-2.94-1.67-6.71-1.16-3.76-2.72-7.67t-3.36-7.3Zm8.06-16h.68l.81-.18 3.31.73q-.62 3.5-1.39 7.31t-1.44 6.39l-4.11-.78q.35-1.62.72-3.79.39-2.18.77-4.52.37-2.36.65-4.47Zm-39.68-12.12 4.54 1.39q-2.09 5.41-4.9 10.7t-6.08 9.96q-3.25 4.65-6.74 8.25-.21-.57-.7-1.46-.47-.9-1.01-1.84t-1-1.45q3.18-3.15 6.12-7.22 2.95-4.08 5.47-8.78t4.3-9.55Zm-6.64 16.5 4.5-4.55.07.08v46.5h-4.57Z"/>
    <path id="g24" d="M8.39-43.47h19.47v41.85h-19.47v-4.33h15.02v-33.24h-15.02Zm-2.84 0h4.43v46.94h-4.43Zm2.54 17.8h17.64v4.25h-17.64Zm7.25-28.24 5.19.94q-.95 2.97-2.09 6.06-1.13 3.08-2.08 5.24l-3.88-.99q.55-1.56 1.1-3.53.55-1.98 1.03-4.03t.73-3.69Zm21.63 10.24h19.65l.01 4.45h-19.66Zm17.95 0h4.52q0 0 0 .47t0 1.06-.03.94q-.38 11-.75 18.61-.38 7.59-.89 12.45t-1.18 7.53q-.65 2.66-1.64 3.84-1.08 1.41-2.25 1.94t-2.89.72q-1.61.16-4.22.09-2.61-.04-5.32-.18-.07-1.03-.49-2.38-.4-1.34-1.11-2.28 3.16.25 5.77.33 2.62.06 3.75.06.95 0 1.58-.2t1.15-.85q.81-.86 1.41-3.45t1.04-7.39q.46-4.81.85-12.27t.7-18.03Zm-16.64-10.35 4.63 1.05q-1.16 4.75-2.8 9.35-1.63 4.59-3.58 8.62-1.95 4.02-4.17 7.08-.41-.38-1.16-.91-.73-.53-1.5-1.03-.75-.5-1.33-.81 2.19-2.86 4.05-6.6 1.88-3.73 3.35-8.03t2.51-8.72Zm-2.95 26.97 3.75-2.14q1.81 2.25 3.76 4.92t3.64 5.18q1.69 2.5 2.72 4.42l-4.08 2.58q-.95-1.99-2.59-4.57-1.62-2.57-3.53-5.31-1.89-2.75-3.67-5.08Z"/>
    <path id="g25" d="M4.42-11.97h29.17v3.69h-29.17Zm-1.7-30.83h31.95v3.74h-31.95Zm13.86-5.79h4.44v47.07h-4.44Zm-13.91 47.2q3.91-.38 9-.83 5.1-.47 10.81-1.06 5.72-.6 11.41-1.19l.06 3.77q-5.43.64-10.95 1.29t-10.56 1.21q-5.03.54-9.1 1.01Zm5.91-22.49v4.69h20.76v-4.68Zm0-7.82v4.61h20.76v-4.61Zm-3.99-3.33h28.86v19.17h-28.86Zm26.57-18.1 2.37 3.69q-3.75.8-8.69 1.46-4.93.64-10.23 1.04-5.28.39-10.08.56-.11-.78-.45-1.81t-.72-1.78q3.59-.2 7.41-.5 3.82-.31 7.56-.69t7.05-.89q3.29-.5 5.78-1.08Zm3.03 14.33h23.11v4.46h-23.11Zm21.25 0h4.61q0 0 0 .49 0 .47-.02 1.03-.01.55-.01.89-.27 10.12-.55 17.09-.28 6.96-.66 11.38-.36 4.4-.92 6.81-.55 2.41-1.34 3.44-.88 1.25-1.91 1.76-1.01.52-2.45.68-1.33.15-3.46.14-2.1-.02-4.37-.11-.08-1.03-.45-2.35-.36-1.31-.94-2.28 2.34.21 4.31.25 1.99.05 2.91.05.78 0 1.29-.2t.96-.8q.59-.74 1.04-3 .46-2.28.79-6.58t.62-11.08.55-16.5Zm-13.5-14.15h4.64q-.05 7.61-.21 14.72t-.87 13.53-2.34 12q-1.63 5.56-4.55 10.14-2.91 4.56-7.49 8.01-.37-.57-1-1.23-.6-.66-1.28-1.25-.67-.6-1.28-.97 4.39-3.16 7.13-7.41t4.23-9.47q1.52-5.21 2.13-11.28.61-6.06.75-12.79t.14-14Z"/>
    <path id="g26" d="M29.73-15.95h4.69v17.53h-4.69Zm-9.64-15.5v6.08h24.19v-6.08Zm-4.5-3.64h33.46v13.43h-33.46Zm-5.89 17.12h45.68l-.01 23.08h-4.79v-19.33h-36.27v19.49h-4.61Zm2.68 8.88h39.92v3.5h-39.93Zm-.01 8.79h39.93v3.71h-39.93Zm17.07-53.48h4.84v12.03h-4.84Zm-24.14 9.84h54.06v13.25h-4.77v-9.03h-44.7v9.03h-4.59Zm5.28-7.29 4.23-1.75q1.63 1.85 3.21 4.07 1.57 2.21 2.42 3.86l-4.47 2.08q-.74-1.7-2.3-4.06-1.55-2.36-3.09-4.2Zm38.4-1.97 4.96 1.65q-1.63 2.3-3.41 4.57-1.76 2.25-3.25 3.82l-3.95-1.5q.97-1.18 2.01-2.68 1.07-1.52 2.05-3.07t1.59-2.79Z"/>
    <path id="g27" d="M27.86-49.91h31.44v4.61h-31.44Zm18.72 19.08h4.84v29.8q0 2.23-.62 3.42t-2.24 1.81q-1.64.52-4.51.63-2.86.12-7.58.12-.14-1-.6-2.34-.43-1.34-.98-2.39 2.3.06 4.36.11t3.58.01q1.51-.01 2.09-.04.94-.05 1.3-.35t.36-1.04Zm-21.52-1.4h36.08v4.57h-36.08Zm-12.81 4.96 4.23-4.21.55.25v36.53h-4.78Zm7.41-12.82 4.54 1.72q-2.47 4.03-5.67 8.04t-6.69 7.52-6.89 6.23q-.32-.51-.93-1.26-.61-.77-1.27-1.53-.64-.79-1.17-1.24 3.34-2.36 6.65-5.5t6.27-6.73 5.16-7.25Zm-2.6-13.74 4.63 1.92q-2.13 2.79-4.92 5.69t-5.8 5.55q-3.02 2.64-5.91 4.7-.31-.55-.81-1.26-.5-.72-1.03-1.44t-.99-1.16q2.71-1.81 5.49-4.19 2.8-2.37 5.25-4.93 2.45-2.58 4.09-4.88Z"/>
    <path id="g28" d="M32-18.34h23.73v4.4h-23.73Zm-15.33 1.59q1.88 5.2 4.78 8.44 2.92 3.22 6.75 4.97 3.83 1.73 8.38 2.37 4.56.63 9.7.63.63 0 2.11 0t3.39 0 3.88 0 3.59-.02 2.44-.03q-.36.55-.74 1.41-.36.86-.64 1.73t-.4 1.56h-2.97-10.89q-5.92 0-11-.78t-9.28-2.87-7.44-5.88q-3.24-3.81-5.46-9.91Zm-7.09-29.5h45.64v4.45h-45.64Zm-5.56 13.31h55.9v4.49h-55.9Zm25.34-20.73h4.92v23.06h-4.92Zm.05 23.19h4.9v31.23l-4.9-1.64Zm-15.41 5.92 5.03.61q-.72 5.26-2.28 10.78-1.55 5.5-4.2 10.33-2.64 4.81-6.78 8.07-.38-.46-1.04-1.04-.65-.57-1.32-1.16-.68-.58-1.22-.89 3.92-3.03 6.34-7.47 2.44-4.44 3.74-9.48 1.29-5.06 1.73-9.75Z"/>
    <path id="g29" d="M27.14-33.47h32.06v4.25h-32.06Zm-2.84-12.61h36.93v4.3h-36.93Zm.26 23.94h36.47v4.28h-36.47Zm15.85-31.67h4.73v22.76h-4.73Zm8.43 23.75h4.72v29.48q0 2.05-.58 3.16t-2.07 1.67q-1.49.55-4 .67t-6.38.13q-.14-.96-.62-2.27-.47-1.3-1.02-2.26 3 .06 5.41.09t3.18 0q.79-.05 1.07-.3.29-.25.29-.97Zm-20.37 16.7 3.95-2.25q1.55 1.63 3.17 3.61t3.02 3.91q1.39 1.9 2.19 3.4l-4.21 2.6q-.75-1.55-2.09-3.5-1.33-1.97-2.91-4.02t-3.12-3.75Zm-21.31-36.22h15.98v42.08h-15.98v-4.34h11.48v-33.35h-11.48Zm.2 18.63h13.39v4.31h-13.39Zm-2.53-18.63h4.51v47.33h-4.51Z"/>
    <path id="g30" d="M26.77-12.05l-1.43-3.37q3.94-1.64 6.02-4.13t2.08-6.12l-1.21-5.38 3.47 4.85q-.72.83-1.61 1.14-.87.29-1.79.29-1.96 0-3.38-1.14-1.4-1.15-1.4-3.42t1.45-3.44q1.47-1.15 3.39-1.15 2.69 0 4.08 2 1.4 2 1.4 5.37 0 5.17-3.01 8.96-3 3.78-8.06 5.54Z"/>
    <path id="g31" d="M3.36-.84h57.41v3.95h-57.41Zm.34-41.6h56.71v3.97h-56.71Zm4.43 32.22h48.56v3.83h-48.57Zm21.21-38.66 4.83.01v49.9h-4.83Zm22.29-4.53 2.57 3.74q-4.28.76-9.68 1.37-5.4.6-11.35 1.03t-12 .71q-6.03.26-11.64.37-.01-.84-.36-1.95-.33-1.13-.67-1.86 5.59-.17 11.58-.45t11.78-.71q5.8-.42 10.87-.98 5.1-.58 8.9-1.27Zm-36.79 30.35v4.89h34.6v-4.89Zm0-8.05v4.81h34.6v-4.81Zm-4.68-3.45h44.12v19.87h-44.12Z"/>
    <path id="g32" d="M15.97-42.58v3.56h31.84v-3.56Zm0-6.25v3.49h31.84v-3.49Zm-4.63-2.87h41.27v15.56h-41.27Zm3.38 34.26v3.66h35.03v-3.66Zm0-6.45v3.58h35.03v-3.58Zm-4.52-3h44.28v16.06h-44.28Zm19.36 1.09h4.69v27.55h-4.69Zm-26.2-7.62h57.41v3.69h-57.41Zm5.03 26.12h47.5v3.38h-47.5Zm-5.39 7.1h58.11v3.73h-58.11Z"/>
    <path id="g33" d="M35.72-7.64h19.89v4.61h-19.89Zm-1.77-40.17h23.86v49.64h-4.87v-45.03h-14.3v45.47h-4.69Zm-18.17-.56 4.78-.01v53.38h-4.78Zm-12.56 13.53h28.55v4.48h-28.55Zm12.31 1.61 3.39 1.18q-1.12 3.74-2.73 7.69-1.6 3.94-3.55 7.72-1.94 3.76-4.06 7-2.13 3.22-4.3 5.53-.41-1.03-1.19-2.3t-1.42-2.14q2.02-2.07 4.06-4.92 2.07-2.86 3.94-6.17 1.88-3.33 3.38-6.81 1.51-3.49 2.48-6.78Zm12.56-19.93 3.22 3.75q-3.37 1.27-7.81 2.32t-9.17 1.81-9.13 1.28q-.14-.8-.56-1.89t-.83-1.91q4.28-.58 8.82-1.37 4.53-.81 8.59-1.85 4.06-1.03 6.87-2.14Zm-7.89 24.07q.63.59 1.77 1.89 1.14 1.28 2.53 2.89 1.41 1.61 2.8 3.22 1.39 1.59 2.45 2.9 1.08 1.32 1.58 1.94l-2.96 3.95q-.79-1.28-2.2-3.26-1.39-2-3-4.17-1.59-2.18-3.06-4.05-1.45-1.89-2.34-2.95Z"/>
    <path id="g34" d="M31.2-43.05h30.33v4.61h-32.61Zm7.97 13.88h20.91v4.42h-20.91Zm-.01 14.12h21.79v4.53h-21.79Zm-2.38-26.5h4.91v46.61h-4.91Zm-3.12-11.45 4.62 1.2q-1.8 5.1-4.19 10t-5.15 9.19-5.72 7.61q-.36-.44-1.05-1.06-.67-.63-1.4-1.25t-1.27-.99q2.94-3.01 5.55-6.98t4.83-8.52 3.78-9.2Zm-15.41-.53 4.61 1.44q-2.09 5.4-4.91 10.73-2.79 5.31-6.08 9.97-3.26 4.66-6.76 8.25-.24-.56-.74-1.49-.49-.92-1.04-1.87-.55-.97-1.03-1.48 3.22-3.15 6.15-7.22 2.94-4.08 5.46-8.78t4.34-9.55Zm-6.83 16.5 4.77-4.8.08.1v46.73h-4.85Z"/>
    <path id="g35" d="M14.58-32.08v9.63h34.67v-9.63Zm-4.13-3.29 43.13-.01v16.21h-43.13Zm10.49-6.72h22.34v3.43h-22.34Zm8.84 7.9h4.06v13.38h-4.06Zm-11.33 4.02 3.47-1.17q1.25 1.68 2.31 3.72 1.07 2.03 1.5 3.56l-3.65 1.36q-.38-1.57-1.41-3.66-1.01-2.09-2.22-3.81Zm23.07-1.42 4.1 1.31q-1.09 2.05-2.24 4.11-1.15 2.05-2.11 3.48l-3.36-1.17q.89-1.62 1.97-3.84 1.07-2.24 1.64-3.89Zm-27.29 15.48h36.19v20.95h-4.87v-17.53h-26.58v17.75h-4.74Zm2.8 7.72h30.6l-.01 3.47h-30.59Zm.05 7.86h30.58v3.44h-30.58Zm14.45-53.49 4.25 1.58q-3.34 4.39-8.26 7.94-4.93 3.53-10.68 6.23-5.73 2.71-11.67 4.61-.25-.5-.73-1.22t-1.03-1.4q-.55-.7-1-1.16 5.86-1.58 11.4-3.97 5.55-2.4 10.14-5.57 4.61-3.18 7.58-7.04Zm2.78 2.19q2.24 2.31 5.38 4.44 3.15 2.11 6.87 3.94 3.74 1.83 7.74 3.25 4.01 1.4 7.89 2.33-.78.62-1.67 1.74t-1.43 2.01q-3.86-1.07-7.89-2.71-4.01-1.64-7.83-3.75-3.79-2.12-7.06-4.56t-5.72-5.09Z"/>
    <path id="g36" d="M34.94-36.55h26.11v4.5h-26.11Zm-32.02-3.4h32.31v4.11h-32.31Zm2.11 13.79h28.24v4.05h-28.24Zm1.69 10.61h25.22v4.02h-25.22Zm43.48-38h4.63v52.66q0 2.23-.61 3.37t-2 1.72q-1.42.58-3.83.75t-6.31.14q-.11-.59-.41-1.42-.29-.81-.62-1.65t-.71-1.46q2.91.07 5.24.07 2.34.01 3.09-.02.85-.05 1.19-.36.34-.3.34-1.11Zm-13.5 27.99 4.07-1.38q1.37 2.32 2.59 4.94t2.09 5.13q.89 2.5 1.21 4.48l-4.33 1.55q-.33-1.96-1.17-4.47-.85-2.53-2-5.22t-2.46-5.03Zm-32.9-24.21 3.06-1.95q1.81 1.91 3.55 4.27t2.51 4.14l-3.2 2.19q-.8-1.8-2.47-4.24-1.66-2.45-3.45-4.41Zm4.68 15.93 3.46-1.83q1.5 1.65 2.95 3.7 1.47 2.05 2.08 3.64l-3.61 2.02q-.58-1.6-1.98-3.71-1.41-2.1-2.9-3.82Zm4.27-19.88h3.92v15.33h-3.92Zm4.14 28.88h4.52v23.09h-4.52Zm4.7-28.88h3.97v15.33h-3.97Zm-18.65 51.5q3.98-.47 9.22-1.11 5.25-.65 11.12-1.44 5.88-.78 11.72-1.53l.13 4.25q-5.63.77-11.33 1.58t-10.89 1.52q-5.18.7-9.3 1.26Zm28.45-49.45 3.89 2.15q-1.72 2.24-3.62 4.55t-3.5 3.94l-2.99-1.83q1.03-1.16 2.19-2.7 1.16-1.56 2.23-3.19 1.1-1.64 1.8-2.92Zm-5.37 16.22 4.28 1.56q-1.35 2.53-2.78 5.22t-2.71 4.55l-3.58-1.36q.82-1.36 1.71-3.11.9-1.75 1.73-3.57.85-1.82 1.35-3.29Z"/>
    <path id="g37" d="M10.31-31.69h50.17v4.02h-50.17Zm-2.09-16.17h50.26v3.92h-50.26Zm11.62 26.81h37v3.92h-37Zm-.11 9.63h35.68v3.9h-35.68Zm-6.06 10.44h47.8v4.03h-47.8Zm21.1-25.55h4.7v28.22h-4.7Zm-26.91-5.16h4.69v13.57q0 2.7-.27 5.85-.25 3.15-.98 6.36t-2.1 6.19q-1.34 2.99-3.53 5.47-.36-.47-1.05-1.09-.67-.61-1.39-1.18-.71-.54-1.25-.82 2.68-3.02 3.91-6.63 1.25-3.62 1.61-7.31.36-3.7.36-6.89Zm13.33 5.13 4.14 1.2q-1.67 4.59-4.35 8.94-2.67 4.33-5.76 7.28-.19-.45-.66-1.22t-.98-1.56-.94-1.24q2.67-2.51 4.89-6.04 2.24-3.53 3.66-7.36Zm-5.49-15.03 3.19-2.57q4.28 1 9.06 2.27 4.78 1.25 9.5 2.64 4.74 1.38 8.94 2.73t7.34 2.44l-3.06 2.88q-3.04-1.17-7.2-2.58t-8.89-2.8q-4.72-1.4-9.56-2.7-4.85-1.31-9.32-2.31Zm32.11-2.86 3.41 2.11q-3.39 1.81-7.64 3.43-4.24 1.63-8.92 3.08-4.68 1.44-9.38 2.61-4.69 1.16-8.94 2.02-.45-.61-1.26-1.5-.81-.91-1.44-1.39 4.31-.8 9.08-1.88 4.78-1.09 9.45-2.45 4.67-1.38 8.72-2.91 4.06-1.53 6.92-3.12Zm-19.29-8.16 3.42-1.73q1.56 1.64 3.08 3.76t2.26 3.67l-3.59 2.05q-.74-1.61-2.22-3.78t-2.95-3.97Z"/>
    <path id="g38" d="M13.36-41.31h44.33v4.67h-44.33Zm-2.83 18.75h44.83v4.62h-44.83Zm-6.98 20.95h57.17v4.67h-57.17Zm26.09-52.14h4.97v54.47h-4.97Zm-14.37 1.03 4.9 1.1q-1.37 4.92-3.3 9.64-1.92 4.7-4.23 8.76-2.3 4.05-4.87 7.11-.47-.44-1.27-.97-.78-.53-1.61-1.06-.81-.53-1.45-.83 2.65-2.86 4.86-6.64t3.98-8.16q1.78-4.39 2.99-8.95Z"/>
    <path id="g39" d="M5.28-39.78h49.69v4.89h-49.69Zm47.81 0h4.97q0 0-.01.5t-.05 1.09-.06.94q-.56 9.92-1.11 16.91-.53 6.97-1.19 11.48-.64 4.52-1.44 7.09-.79 2.58-1.89 3.77-1.17 1.42-2.42 1.92t-3.09.67q-1.63.16-4.47.1t-5.8-.21q-.06-1.07-.48-2.5-.42-1.4-1.14-2.45 3.29.3 6.07.38 2.8.06 3.99.06 1.03 0 1.72-.17.7-.19 1.25-.8.89-.88 1.64-3.33.75-2.47 1.36-6.89.61-4.44 1.14-11.22t1.01-16.33Zm-26.87-13.88h5.05v11.13q0 4.39-.41 9.28-.39 4.89-1.67 9.98-1.27 5.1-3.91 10.15-2.62 5.03-7.05 9.75-4.42 4.7-11.14 8.75-.37-.61-1.01-1.33-.63-.71-1.35-1.39t-1.32-1.08q6.39-3.8 10.56-8.16 4.19-4.36 6.66-9 2.48-4.65 3.67-9.33t1.54-9.15q.38-4.49.38-8.47Z"/>
    <path id="g40" d="M28.91-50.63l31.82.01v4.15h-31.82Zm1.18 33.29h29.44v4.15h-29.44Zm-3.59 16.68h35.05v4.14h-35.05Zm15.42-14.68h4.77v17.73h-4.77Zm-7.89-29 4.06 1.03q-1.2 2.51-2.79 5.44-1.58 2.9-3.07 5.42 1.99 2.89 3.77 6.04 1.8 3.14 2.75 5.38l-3.91 1.62q-.93-2.54-2.82-6.07t-4.21-6.91q1.17-1.99 2.36-4.16t2.21-4.22 1.65-3.57Zm10.49 0 4.06 1.03q-1.22 2.51-2.88 5.4-1.65 2.88-3.17 5.41 2.08 2.83 4 5.97 1.94 3.14 2.95 5.34l-3.92 1.67q-1-2.54-3.03-6.04t-4.47-6.88q1.27-1.98 2.47-4.14 1.22-2.17 2.27-4.2t1.72-3.56Zm10.89 0 4.15 1.06q-1.31 2.53-3.06 5.42-1.73 2.89-3.3 5.41 1.46 1.89 2.88 3.97 1.42 2.06 2.58 3.96 1.15 1.91 1.87 3.4l-3.84 1.71q-1.14-2.54-3.35-6.07-2.2-3.54-4.78-6.91 1.35-1.99 2.64-4.16t2.41-4.22q1.11-2.04 1.8-3.57Zm-52.1-2.46h23.97v4.27h-23.97Zm-.84 36.47h25.34v4.27h-25.34Zm10.8-43.44h4.07v17.55h-4.07Zm.37 17.74h3.41v18.64h.34v22.59h-4.11v-22.59h.36Zm-5.56 11.03v5.88h14.62v-5.88Zm0-9.22v5.77h14.62v-5.77Zm-3.58-3.59h21.94v22.28h-21.94Z"/>
    <path id="g41" d="M12.05-53.77l4.04 1.65q-2.04 3.79-5.06 7.84-3.01 4.03-6.01 6.9-.24-.49-.69-1.17-.44-.68-.88-1.36t-.81-1.11q1.77-1.7 3.56-3.87 1.8-2.19 3.33-4.49 1.55-2.31 2.52-4.39Zm1.32 12.83 3.85 1.44q-1.59 3.75-3.69 7.58-2.08 3.81-4.39 7.25t-4.64 6.08q-.22-.52-.7-1.32t-1-1.59q-.52-.81-.92-1.27 3.25-3.45 6.32-8.31 3.1-4.86 5.18-9.86Zm-4.43 12.17 4.25-4.28.03.11v37.99h-4.28Zm37.2-12.92h15.33v4.16h-16.36Zm.33-12.11 4.2.75q-.83 5.39-2.14 10.57-1.3 5.15-3.06 9.62-1.75 4.45-4.06 7.84-.27-.45-.8-1.1-.53-.68-1.09-1.36-.55-.69-1.05-1.08 3.14-4.58 5.06-11.24 1.94-6.65 2.94-14Zm-.03 17.67q.97 8.4 2.81 15.65 1.84 7.23 4.92 12.76t7.72 8.75q-.47.42-1.03 1.05t-1.06 1.33q-.49.7-.82 1.28-4.85-3.75-8.03-9.72-3.17-5.99-5.04-13.75-1.88-7.78-2.94-16.91Zm8.06-2.96 4.08.34q-1 10.27-3.03 18.52-2.02 8.25-5.6 14.57-3.56 6.33-9.33 10.94-.28-.42-.85-1.03-.57-.59-1.16-1.22t-1.08-.98q5.61-4.05 9.02-9.99t5.25-13.76q1.84-7.85 2.7-17.39Zm-27.98-14.68h3.82v20.35h-3.82Zm-8.25 6.04h3.59v12.37h12.97v-12.33h3.65v16.08h-20.21Zm-1.1 20.32h21.3v3.94h-21.3Zm14.27 26.64-.63-4.25 1.36-1.87 8.41-4.8q.2.83.54 1.85t.6 1.65q-4.08 2.6-6.19 4.05-2.09 1.45-2.92 2.16-.83.7-1.17 1.21Zm0 0q-.13-.57-.44-1.39-.31-.81-.7-1.57-.39-.77-.75-1.27.65-.38 1.25-1.28.61-.92.61-2.83v-11.81h4.07v16.03q0 0-.6.41t-1.43 1.06q-.81.64-1.42 1.34-.59.7-.59 1.31Zm-11.13-20.04h4.19q-.11 5.84-.64 10.53-.52 4.69-1.91 8.28-1.37 3.59-4.14 6.05-.4-.83-1.26-1.88-.86-1.03-1.66-1.61 2.33-2.06 3.45-5.11t1.52-7.11q.39-4.06.45-9.15Z"/>
    <path id="g42" d="M12.05-6.41h41.06v3.24h-41.06Zm39.98 0h4.74q0 0-.07.38-.04.36-.11.86-.04.48-.15.83-.81 3.48-1.78 5.39-.96 1.9-2.22 2.78-1.14.64-2.42.83t-3.24.18q-1.17 0-3.2 0t-4.49-.07q-2.45-.08-5.04-.22-.07-.77-.39-1.71t-.86-1.68q2.62.23 5.22.36t4.65.15q2.06.03 3.03.03 1.32 0 2.02-.08t1.2-.34q.97-.58 1.67-2.26.72-1.71 1.41-4.86Zm-37.25-6.67h33.49v-3.23h-38.86v-3.21h43.39v9.65l-38.02-.01Zm-2.05 0h4.58q-.79 2.63-1.75 5.28-.94 2.64-1.7 4.63h-4.64q.94-2.08 1.86-4.77.94-2.7 1.65-5.14Zm11.54-29.08h14.93v2.58h-14.93Zm0 5.52h14.93v2.62h-14.93Zm-1.88-11.34h18.75v2.95h-18.75Zm5.02 19.59v3.83h8.76v-3.83Zm-3.19-2.72h15.26v9.25h-15.26Zm-7.59-8.34 2.75-.86q1.21 1.89 2.39 4.23t1.75 3.97l-2.9 1.08q-.56-1.7-1.7-4.08t-2.3-4.34Zm-11.47-.91q-.14-.61-.52-1.7t-.69-1.78q1.13-.14 2.41-1.5.48-.43 1.47-1.63t2.17-2.83 2.02-3.31l3.57 1.16q-1.75 2.81-3.81 5.34-2.05 2.53-3.94 4.16v.06q0 0-.39.2-.39.19-.95.5-.56.3-.95.64t-.39.69Zm0 0-.03-2.58 1.82-.97 9.6-.64q-.14.64-.22 1.44-.06.8-.1 1.31-4.34.39-6.57.64t-3.16.43q-.91.17-1.34.37Zm.22 9.06q-.15-.58-.47-1.68-.33-1.11-.69-1.77.83-.08 1.72-.67t1.92-1.55q.76-.58 2.45-2.23 1.71-1.66 3.67-3.94 1.97-2.28 3.6-4.7l3.48 1.45q-3.08 3.84-6.37 7.3-3.28 3.43-6.56 5.82l-.01.07q.01 0-.42.17-.42.17-.95.45-.52.28-.95.63-.43.33-.43.65Zm-.01 0-.04-2.54 1.83-1.08 13.34-1.49q-.14.64-.17 1.44-.03.78-.02 1.3-4.61.58-7.4.97-2.8.39-4.3.64t-2.19.42q-.67.16-1.05.34Zm5.93 1.63 2.95-.55q.58 1.97 1.09 4.24.53 2.26.61 3.89l-3.12.7q-.11-1.7-.56-4.02-.46-2.31-.97-4.26Zm-4.97-.67 3.15.73q-.43 2.41-1.28 4.94-.84 2.51-1.78 4.36-.45-.38-1.31-.88-.86-.51-1.47-.73.95-1.83 1.61-4.05t1.08-4.37Zm10.87-.11 2.64-.85q.93 1.6 1.68 3.5t1.04 3.32l-2.87 1.01q-.25-1.42-.97-3.39-.7-1.98-1.52-3.59Zm11.38-22.38 3.19-.95q.92 1.39 1.78 3.12.87 1.74 1.2 3.04l-3.31 1.18q-.38-1.34-1.14-3.14t-1.72-3.25Zm25.56 13.67 2.8-.86q1.23 1.83 2.36 4.11 1.12 2.27 1.59 3.86l-2.92 1.13q-.44-1.71-1.52-3.99t-2.31-4.25Zm-12.17-.86q-.14-.57-.5-1.64-.35-1.07-.63-1.7 1.14-.22 2.44-1.55.45-.45 1.45-1.68 1.02-1.24 2.19-2.89 1.19-1.68 2.11-3.44l3.31 1.23q-1.72 2.85-3.78 5.39-2.04 2.55-3.98 4.28v.07q0 0-.66.31-.64.3-1.29.75-.66.44-.66.87Zm0 0-.03-2.56 1.87-1.01 10.05-.72q-.13.64-.2 1.44-.08.79-.07 1.31-4.59.44-6.95.7-2.34.27-3.3.47-.93.19-1.37.37Zm.19 8.93q-.14-.58-.46-1.68-.31-1.09-.67-1.78.81-.09 1.77-.68.97-.61 2.09-1.57.81-.59 2.56-2.28 1.77-1.7 3.88-4.04 2.12-2.35 3.95-4.82l3.3 1.5q-3.19 3.94-6.63 7.44-3.43 3.48-6.84 5.94v.06q0 0-.45.17-.44.16-1.02.46-.58.28-1.03.6t-.45.68Zm0 0-.05-2.57 1.94-1.07 14.22-1.61q-.08.61-.15 1.43-.06.82-.04 1.32-4.92.61-7.92 1.01-2.99.41-4.6.66t-2.33.45q-.7.19-1.07.38Zm6.4 1.48 2.94-.59q.67 1.89 1.17 4.15t.6 3.94l-3.21.67q-.06-1.62-.45-3.92t-1.05-4.25Zm-5.09-.44 3.28.72q-.44 2.22-1.19 4.63-.75 2.39-1.58 4.14-.46-.38-1.35-.86-.9-.5-1.52-.8.92-1.69 1.47-3.76.56-2.08.89-4.07Zm11.4-.2 2.72-.8q.89 1.85 1.69 4.03t1.16 3.74l-2.89.95q-.3-1.61-1.07-3.83-.75-2.22-1.6-4.09Z"/>
    <path id="g43" d="M9.3-3.67h45.59v4.72h-45.59Zm-.03-18.71h46.25v4.58h-46.25Zm-2.99-18.59h51.72v45.81h-4.7v-41.12h-42.47v41.41l-4.55-.01Zm15.36-12.12h4.7v52.53h-4.7Zm15.52 0h4.7v52.29h-4.7Z"/>
    <path id="g44" d="M41.53-17.84h16.69v4.15h-16.69Zm-2.08-10.79h4.55v30.6l-4.55-1.72Zm-9.26 13.35q1.59 6.34 4.36 9.67 2.76 3.31 6.59 4.52 3.83 1.18 8.55 1.18.53 0 2.11 0 1.59 0 3.56 0 1.98 0 3.7-.01 1.74-.02 2.5-.02-.33.53-.65 1.33-.33.81-.55 1.64-.2.85-.31 1.45h-2.49-8.23q-4.3 0-7.83-.79t-6.38-2.78q-2.82-1.99-4.96-5.6-2.13-3.62-3.58-9.2Zm1.12-38.47 4.63.75q-1.64 8.11-4.83 14.75-3.19 6.63-7.92 11.02-.33-.44-.97-1.07-.63-.64-1.34-1.25-.72-.62-1.25-.97 4.54-3.89 7.43-9.92t4.25-13.31Zm17.22.05 4.69.58q-1.27 8.31-4.33 14.62-3.05 6.3-7.98 10.38-.35-.41-1.08-.99t-1.47-1.11q-.74-.55-1.28-.89 4.87-3.56 7.65-9.31t3.8-13.28Zm-18.81 12.98 2.28-3.31q1.47 1.09 3.05 2.39 1.59 1.3 3.01 2.58 1.42 1.26 2.28 2.25l-2.34 3.72q-.88-1.05-2.28-2.39t-2.97-2.74q-1.58-1.39-3.03-2.5Zm16.81.02 3.16-2.82q2.15 1.79 4.48 3.99 2.33 2.19 4.39 4.34t3.3 3.8l-3.34 3.26q-1.21-1.73-3.22-3.92-2.02-2.2-4.32-4.48t-4.45-4.17Zm-19.61 16.72 4.71.34q-.66 9.75-2.97 16.81t-7.49 11.8q-.33-.41-1.03-1-.69-.58-1.41-1.17-.7-.6-1.25-.92 4.94-4.05 6.96-10.58t2.48-15.28Zm-9.78-16.72 4.31 1.56q-2.18 3.83-5.03 7.58t-6.03 7.08-6.31 5.87q-.22-.51-.72-1.31-.48-.81-1.03-1.63-.53-.83-.99-1.31 2.96-2.23 5.86-5.08 2.93-2.84 5.49-6.12 2.58-3.28 4.45-6.64Zm-1.5-13.05 4.33 1.7q-1.86 2.67-4.39 5.46-2.52 2.78-5.3 5.31-2.76 2.51-5.53 4.45-.3-.48-.78-1.12t-.99-1.3q-.5-.67-.89-1.08 2.52-1.72 5.1-3.97 2.58-2.26 4.81-4.72 2.25-2.46 3.64-4.73Zm-4.31 24.95 3.9-3.93.65.28-.01 37.78h-4.54Z"/>
    <path id="g45" d="M21.73-33.98h4.75v37.03h-4.75Zm15.35 0h4.75v37.03h-4.75Zm-8.25-14.24 5.87.5q-1.03 3.72-2.22 7.6-1.17 3.85-2.26 6.6l-4.74-.64q.66-1.95 1.3-4.42t1.19-5.03.86-4.61Zm-22.11 11.89h48.14v4.5h-43.27v36.97h-4.87Zm45.98 0h4.83v35.42q0 2.04-.51 3.14-.52 1.11-1.94 1.72-1.49.57-3.92.71-2.44.14-5.88.14-.14-1-.62-2.33-.47-1.31-1.02-2.2 2.69.06 4.88.06t2.9-.05q.77-.03 1.02-.28.26-.25.26-.92Zm-49.26-14.11h57.4v4.88h-57.4Z"/>
    <path id="g46" d="M3.14-41.41h16.11v4.47h-16.11Zm6.77-12.37h4.2v58.81h-4.2Zm-.05 15.06 2.52 1.06q-.52 3.75-1.43 7.83-.89 4.08-2 8.02-1.11 3.92-2.39 7.33-1.26 3.39-2.64 5.79-.2-.72-.61-1.58-.39-.85-.81-1.7-.41-.84-.8-1.44 1.3-2.11 2.5-5.07 1.22-2.97 2.33-6.4t1.95-7q.85-3.56 1.38-6.84Zm3.86 5.42q.42.58 1.3 2.02.87 1.42 1.87 3.12t1.83 3.13q.84 1.44 1.22 2.09l-2.38 3.55q-.4-1.08-1.17-2.74t-1.64-3.46-1.67-3.36-1.3-2.42Zm6.86 12.61h39.33v3.89h-39.33Zm5.61 8.52 2.89-2.55q1.61 1.19 3.39 2.69 1.78 1.48 3.36 2.9 1.59 1.43 2.61 2.51l-2.97 2.89q-1.03-1.11-2.61-2.6t-3.31-3.05q-1.72-1.54-3.36-2.79Zm20.94-12.6 2.48-2.31q1.73.99 3.66 2.31 1.92 1.32 3.01 2.33l-2.51 2.6q-1.11-1.07-3-2.47t-3.65-2.46Zm5.79 8.65 4.1 1.56q-3.22 6.48-9.11 11.39t-13.38 7.94q-.44-.68-1.22-1.58-.76-.91-1.42-1.49 7.3-2.78 12.78-7.39 5.5-4.61 8.25-10.44Zm-16.25-37.19h4.14q.28 11.4 1.22 21.08.95 9.65 2.72 16.86 1.78 7.18 4.5 11.29 2.73 4.1 6.55 4.44 1.01.06 1.65-1.7.66-1.77 1.05-5.25.44.42 1.03.92.61.48 1.2.87t1.04.61q-.63 3.55-1.5 5.61t-1.94 2.89q-1.08.83-2.39.77-4.28-.31-7.39-3.25t-5.25-8.17q-2.13-5.24-3.47-12.39-1.33-7.16-2.08-15.91t-1.08-18.67Zm-5.62 19.28 3.06-.83q1.05 2.28 1.95 5 .92 2.7 1.3 4.52l-3.19 1.11q-.39-1.94-1.26-4.71t-1.86-5.09Zm-9.74-1.72q-.12-.59-.48-1.73-.35-1.15-.64-1.86.53-.14 1.14-.74t1.25-1.58q.44-.65 1.42-2.36t2.09-4.03 1.91-4.73l3.61 1.19q-1.69 3.82-3.8 7.51t-4.17 6.22v.09q0 0-.59.33-.58.31-1.16.78-.58.46-.58.91Zm0 0-.04-2.83 1.87-1.19 9.03-.92q-.36.75-.73 1.71-.36.93-.52 1.51-3.67.44-5.61.75-1.93.3-2.76.53-.82.22-1.24.44Zm.6 10.95q-.05-.4-.27-1.06-.2-.67-.45-1.37-.24-.72-.44-1.16.73-.19 1.53-.94.81-.76 1.69-1.97.7-.78 2.17-2.84 1.49-2.06 3.22-4.89 1.75-2.83 3.06-5.75l3.56 1.33q-2.65 4.67-5.75 9.08-3.09 4.4-6.1 7.46v.1q0 0-.57.33-.54.32-1.11.79-.54.47-.54.89Zm0 0-.1-2.95 1.78-1.16 10.64-1.31q.08.74.33 1.63.27.89.46 1.45-3.97.58-6.43.95-2.43.36-3.78.6-1.33.23-1.95.42t-.95.37Zm32.17-10.37 2.95-.86q1.1 2.3 2.1 5.01 1.01 2.72 1.43 4.54l-3.11 1.17q-.4-1.91-1.39-4.72-.97-2.81-1.98-5.14Zm-9.8-1.86q-.14-.6-.5-1.74-.36-1.15-.69-1.89.55-.07 1.08-.64.55-.58 1.11-1.45.39-.61 1.25-2.17t1.81-3.71q.96-2.14 1.64-4.29l3.55 1.15q-1.45 3.58-3.33 6.94-1.87 3.35-3.67 5.66v.09q0 0-.56.35-.56.32-1.13.79-.56.47-.56.91Zm0 0-.05-2.86 1.83-1.19 8.63-.84q-.33.75-.69 1.7-.36.94-.56 1.5-3.47.45-5.35.77-1.86.29-2.65.5t-1.16.42Zm.66 11q-.08-.41-.3-1.08-.22-.69-.44-1.42t-.45-1.27q.72-.17 1.5-.9.8-.74 1.63-1.96.65-.81 2.07-2.89 1.42-2.09 3.07-4.92t2.89-5.75l3.68 1.41q-2.48 4.67-5.47 9.08-2.96 4.4-5.9 7.54v.1q0 0-.56.36-.55.34-1.14.81t-.58.89Zm0 0-.1-2.89 1.78-1.22 10.6-1.31q.12.72.36 1.59t.39 1.44q-3.92.59-6.36.97-2.42.36-3.75.64-1.31.26-1.95.43-.63.16-.97.35Zm-19.47 6.81h4.16v3.38q0 3.17-.85 6.92-.84 3.73-3.03 7.39t-6.25 6.69q-.3-.46-.91-1.02-.59-.55-1.2-1.09t-1.09-.8q3.78-2.73 5.75-5.91t2.68-6.39q.74-3.2.74-5.9Z"/>
    <path id="g47" d="M23.8-41.67h36.92v4.37h-36.92Zm-.39 18.64h19.86v4.23h-19.86Zm12.39-11.05h3.86v32.3h-3.86Zm14.2-16.4 3.09-1.85q1.75 1.53 3.44 3.5 1.7 1.96 2.55 3.49l-3.31 2.11q-.8-1.57-2.44-3.63t-3.33-3.62Zm-6.8-3.27h4.53q-.06 8.95.44 17.06.52 8.11 1.41 14.89.89 6.77 2.01 11.78 1.14 5 2.38 7.75 1.25 2.74 2.45 2.74.75 0 1.17-2.33.44-2.33.61-7.28.67.75 1.67 1.41 1.01.64 1.79 1-.32 4.36-.96 6.89-.64 2.54-1.79 3.62t-2.99 1.08q-2.11 0-3.86-2.19-1.73-2.17-3.12-6.15-1.38-4-2.41-9.43-1.01-5.43-1.73-11.97t-1.1-13.85q-.37-7.33-.5-15.02Zm-15.92 19.72h3.81v11.31q0 4.34-.48 8.86-.49 4.5-2.03 8.75t-4.83 7.92q-.53-.61-1.5-1.34-.95-.74-1.67-1.16 3.03-3.39 4.44-7.25t1.84-7.92.42-7.91Zm29.1 1.83 4.06.65q-2.74 12.16-7.86 21.22t-13 14.96q-.33-.38-.96-.9-.62-.5-1.28-1.03-.64-.53-1.15-.84 7.97-5.31 12.87-14.03t7.31-20.03Zm-52.44-8h17.59v4.51h-17.59Zm7.44-13.58h4.48v58.81h-4.48Zm.35 16.48 2.9 1.05q-.68 3.84-1.76 8-1.06 4.14-2.39 8.16-1.31 4.01-2.82 7.48t-3.08 5.89q-.24-.69-.67-1.48-.43-.82-.91-1.63-.47-.83-.91-1.37 1.52-2.14 2.97-5.18t2.74-6.57 2.29-7.22q1.02-3.71 1.64-7.13Zm3.9 3.22q.43.55 1.37 1.92t2.02 2.99q1.09 1.61 1.98 3.01t1.28 2.02l-2.72 3.56q-.43-1.06-1.26-2.65t-1.77-3.38q-.92-1.78-1.76-3.26-.85-1.5-1.4-2.33Z"/>
    <path id="g48" d="M32.05-31.83h25.03v2.81h-25.03Zm0 6.38h25.23v2.79h-25.23Zm-1.36 6.53h29.2v3.25h-29.2Zm-7.89-25.33 4.01 1.2q-2.45 4.97-5.95 9.64t-7.09 7.93q-.3-.4-.88-.96-.58-.58-1.19-1.17t-1.09-.95q3.58-2.91 6.83-7.1t5.36-8.59Zm10.23-.11 4.05 1.14q-2.03 4.63-5 9t-5.97 7.47q-.38-.39-1-.91-.61-.53-1.27-1.03-.64-.5-1.14-.81 3.08-2.78 5.83-6.75t4.5-8.11Zm10.56 7.31h4.14v19.41h-4.14Zm-17.29 27.08h4.39v8.95q0 1.07.58 1.36.57.32 2.62.32.47 0 1.75 0t2.83 0q1.56 0 2.92 0t1.99 0q1.07 0 1.62-.38.55-.36.8-1.55t.34-3.62q.72.51 1.91.97 1.18.44 2.04.65-.18 3.16-.81 4.9-.62 1.73-1.94 2.37-1.29.66-3.51.66-.36 0-1.41 0-1.03 0-2.4 0t-2.75 0q-1.36 0-2.41 0-1.03 0-1.39 0-2.89 0-4.44-.49t-2.14-1.72q-.59-1.22-.59-3.42Zm5.58-1.94 2.82-2.68q1.88.84 3.89 1.93 2.03 1.1 3.83 2.24 1.81 1.14 2.97 2.19l-2.94 3.03q-1.11-1.07-2.87-2.28-1.77-1.22-3.78-2.38-2-1.17-3.92-2.05Zm16.18 2.83 3.58-1.8q1.88 1.8 3.7 4.01 1.85 2.18 3.35 4.34 1.5 2.14 2.29 3.91l-3.85 2.04q-.76-1.76-2.22-3.95-1.46-2.2-3.24-4.42-1.76-2.24-3.61-4.13Zm-29.48-1.09 3.94 1.42q-1.18 3.33-3 6.7t-4.65 5.66l-3.68-2.38q2.65-2 4.51-5.15 1.88-3.17 2.88-6.25Zm14.76-28.28h25.5v3.18h-27.82Zm-3.78 3.73 4.11-3.47v24.44h-4.11Zm-20.01-14.06h51.4v4.06h-51.4Zm-2.58 0h4.42v19.3q0 3.75-.22 8.2t-.81 9.14-1.73 9.14q-1.15 4.44-3.04 8.16-.36-.44-1.04-.99-.69-.55-1.43-1.08-.71-.51-1.24-.71 1.75-3.51 2.79-7.57t1.52-8.34.62-8.36q.16-4.09.16-7.59Zm11.62 15.03 4.13-4.08.05.05v24.06h-4.18Zm11.11-19.84 4.13-1.43q1.4 1.75 2.7 3.91 1.31 2.16 1.88 3.77l-4.33 1.67q-.58-1.69-1.81-3.91-1.24-2.23-2.57-4.01Zm11.3 10.47 3.39-1.52q1.2 1.25 2.33 2.76t1.75 2.68l-3.61 1.76q-.52-1.2-1.61-2.83t-2.25-2.85Z"/>
    <path id="g49" d="M7.03-39.44h47.86v4.72h-43.03v39.85l-4.83-.01Zm45.49 0h4.85l.01 38.28q-.01 2.28-.61 3.54-.6 1.24-2.19 1.87-1.64.58-4.47.69-2.81.12-6.86.12-.09-.67-.38-1.56-.26-.89-.62-1.8-.34-.89-.7-1.56 2.11.06 4.04.09 1.94.04 3.41 0 1.47-.01 2.05-.01.89-.03 1.17-.33.3-.31.3-1.05Zm-34.3-11.45h13.7v4.26l-13.7.01Zm10.41 0h5.29q.31 6.92 1.41 12.77 1.09 5.82 3.17 10.51 2.09 4.67 5.34 8.05 3.27 3.37 7.97 5.4-.5.47-1.15 1.22-.64.74-1.25 1.52-.6.78-1.02 1.42-4.83-2.42-8.23-6.11-3.39-3.7-5.6-8.58-2.19-4.87-3.36-10.86t-1.54-12.97h-1.03Zm.56 12.7 4.5.78q-1.63 9.89-5.92 16.82-4.3 6.92-12.07 10.9-.31-.54-.89-1.25t-1.22-1.42-1.17-1.08q7.27-3.54 11.36-9.62 4.11-6.1 5.41-15.13Z"/>
    <path id="g50" d="M40.13-50.34h16.54v4.37h-12.23v50.97h-4.31Zm15.62 0h.91l.73-.21 3.3 2.1q-1.69 4.47-3.81 9.61t-4.13 9.57q4.33 4.55 5.73 8.38 1.41 3.83 1.41 7.14 0 2.8-.67 5.02-.66 2.2-2.25 3.28-.77.51-1.8.84-1.01.31-2.17.47-1.19.12-2.64.12t-2.84-.06q-.08-.92-.4-2.25-.31-1.33-.9-2.3 1.4.15 2.67.18 1.28.03 2.28 0 .72-.08 1.39-.24.69-.17 1.21-.47.93-.59 1.31-1.97t.34-3.07q0-2.97-1.53-6.55-1.53-3.59-5.83-7.94 1.08-2.5 2.17-5.23 1.11-2.75 2.13-5.47 1.03-2.74 1.89-5.19.88-2.47 1.5-4.31Zm-50.63 4.12h30.22v4.39h-30.22Zm-1.85 17.31h33.51v4.39h-33.51Zm5.76-11.29 4.16-1.11q1.45 2.59 2.61 5.64 1.17 3.03 1.62 5.28l-4.39 1.26q-.4-2.28-1.56-5.37-1.14-3.09-2.44-5.7Zm18.7-1.3 4.8 1.14q-.9 2.25-1.9 4.69-.99 2.44-1.97 4.67t-1.93 3.97l-4.09-1.05q.92-1.81 1.89-4.17t1.81-4.8q.85-2.45 1.39-4.45Zm-18.23 38.84h21.92v4.3h-21.92Zm-2.53-16h26.86v22.86h-4.77v-18.5h-17.56v19h-4.53Zm8.83-34.18 4.29-1.19q1.08 2 2.1 4.44 1.01 2.42 1.5 4.09l-4.57 1.48q-.4-1.71-1.35-4.21t-1.97-4.61Z"/>
    <path id="g51" d="M30.52-40h30.84v4.63l-30.84-.01Zm19.2-13.69h5v52.24q0 2.54-.67 3.75t-2.32 1.79q-1.59.61-4.45.77-2.84.17-6.95.17-.17-1-.71-2.45-.51-1.46-.99-2.49 3.1.07 5.85.08 2.77.02 3.65-.01.89-.05 1.23-.36.36-.33.36-1.21Zm-.52 15.81 3.85 2.33q-1.77 4.24-4.32 8.57-2.53 4.31-5.57 8.39-3.04 4.06-6.33 7.53t-6.6 5.98q-.59-.95-1.57-2.09t-1.86-1.85q3.28-2.21 6.54-5.46 3.27-3.27 6.25-7.15t5.46-8.01q2.47-4.16 4.15-8.24Zm-45.36-2.15h24.3v4.61h-24.3Zm10.71-13.75h4.79v58.81h-4.79Zm-.24 16.59 3.38 1.17q-.96 3.93-2.41 8.07t-3.2 8.12-3.72 7.41q-1.97 3.4-4.03 5.81-.41-1.05-1.24-2.36-.81-1.31-1.45-2.2 1.97-2.21 3.86-5.19 1.91-2.98 3.58-6.48t3.03-7.18q1.36-3.67 2.2-7.17Zm4.63 3.1q.61.56 1.73 1.81 1.13 1.23 2.49 2.76t2.68 3.1q1.33 1.56 2.39 2.84 1.08 1.27 1.57 1.88l-3.07 4.11q-.75-1.25-2.12-3.22t-2.94-4.08-3.01-3.92q-1.43-1.82-2.27-2.85Z"/>
    <path id="g52" d="M13.33-53.7h4.48v58.81h-4.48Zm-10.31 21.43h25.28v4.5h-25.28Zm.46-16.48 3.52-.89q.94 2.2 1.7 4.78.78 2.58 1.33 5.02.56 2.43.74 4.39l-3.8.95q-.13-1.94-.66-4.39-.51-2.47-1.25-5.05-.73-2.59-1.58-4.81Zm20.66-1.13 4.22 1.07q-.78 2.39-1.72 5.06-.92 2.66-1.84 5.11-.92 2.44-1.77 4.25l-3.16-.99q.77-1.92 1.58-4.48t1.53-5.2q.74-2.66 1.16-4.81Zm24.84-3.85h4.57v58.81h-4.57Zm-20.79 40.73 32.89-5.92.76 4.42-32.87 5.95Zm4.81-32.92 2.45-3.27q1.88 1.06 3.83 2.44 1.95 1.36 3.67 2.78 1.72 1.41 2.75 2.63l-2.54 3.65q-1-1.25-2.69-2.72-1.67-1.47-3.64-2.93-1.96-1.47-3.83-2.58Zm-3.27 16.12 2.25-3.37q1.93.97 3.99 2.22 2.08 1.25 3.9 2.56 1.85 1.3 2.96 2.47l-2.41 3.84q-1.09-1.19-2.89-2.56t-3.83-2.74-3.97-2.42Zm-21.18 5.77 3.53 1.17q-.67 3.58-1.78 7.53-1.11 3.94-2.53 7.46-1.43 3.5-3.15 5.81-.2-.82-.64-1.77-.42-.97-.9-1.92-.49-.97-.92-1.64 1.32-1.89 2.59-4.69 1.28-2.81 2.27-5.95 1-3.16 1.53-6Zm12.2.06q.47.72 1.45 2.47t2.08 3.86q1.11 2.09 2.02 3.89.92 1.78 1.31 2.59l-3.49 3.61q-.43-1.32-1.21-3.32-.77-2.01-1.71-4.19-.92-2.19-1.76-4.06-.83-1.9-1.38-2.93Z"/>
    <path id="g53" d="M41.02-48.89h4.6l.01 51.02-4.61-.01Zm-15.99 6.41h35.5v3.93h-35.5Zm-1.7 42.31h38.42v3.95h-38.42Zm3.67-8.94h32.56v3.89h-32.56Zm30.48-43.86 2.91 3.61q-3.17.72-7.19 1.27t-8.42.93-8.87.63q-4.47.23-8.58.36-.1-.77-.45-1.85t-.68-1.84q4.05-.17 8.39-.44t8.55-.65q4.22-.39 7.92-.89t6.42-1.13Zm-25.46 30.56v5.14h22.82v-5.14Zm0-8.25v5.07h22.82v-5.07Zm-4.3-3.57h31.56v20.54h-31.56Zm-14.13-14.24h4.69v53.45h-4.69Zm-10.47 12.75h23.21v4.5h-23.21Zm10.71 1.72 3 1.28q-.97 3.38-2.36 7.03t-3.05 7.19-3.47 6.63-3.67 5.28q-.36-.99-1.11-2.25-.73-1.28-1.36-2.14 1.75-1.93 3.5-4.63t3.38-5.83 2.95-6.36 2.19-6.2Zm9.26-18.84 3.36 3.7q-2.93 1.16-6.72 2.17-3.76 1-7.79 1.75-4.02.74-7.77 1.28-.14-.79-.58-1.86-.42-1.06-.84-1.84 3.59-.63 7.39-1.41t7.2-1.76q3.41-.99 5.75-2.03Zm-5.01 25.34q.61.53 1.86 1.78t2.72 2.72q1.47 1.45 2.65 2.72 1.21 1.26 1.69 1.86l-2.88 3.78q-.57-.97-1.64-2.45-1.06-1.49-2.34-3.13-1.26-1.64-2.41-3.08-1.14-1.43-1.9-2.25Z"/>
    <path id="g54" d="M16.58-36.5h33.45v4.31h-33.45Zm-4.58 28.95h47.16v4.27h-47.16Zm2.64-39.73h44.55v4.34h-44.55Zm33.47 10.78h4.72q0 0 0 .47 0 .45-.03 1.01t-.03.91q-.3 9.63-.63 16.27-.33 6.62-.75 10.81t-1 6.47q-.58 2.26-1.36 3.28-.89 1.2-2 1.67-1.09.47-2.55.64-1.39.09-3.65.06-2.25-.01-4.63-.15-.06-.82-.36-1.92-.29-1.11-.79-1.93 2.43.19 4.47.25 2.03.08 2.96.05.88 0 1.38-.19.51-.18.97-.75.62-.73 1.11-2.97t.86-6.39q.39-4.15.72-10.68t.59-15.88Zm-33.84 0h4.81q-.49 4-1.08 8.52-.58 4.51-1.23 9.03t-1.29 8.54q-.64 4.04-1.21 7.1h-4.93q.68-3.16 1.35-7.24.69-4.07 1.36-8.59.68-4.52 1.23-9 .56-4.49.99-8.36Zm3.07-17.63 4.79 1.36q-1.94 4.38-4.44 8.6t-5.28 7.9-5.61 6.5q-.49-.39-1.27-.92t-1.61-1.08q-.81-.54-1.42-.84 2.98-2.59 5.75-6.05t5.08-7.43q2.33-3.97 4.01-8.04Zm7.66 24.82 2.75-2.72q2.09.9 4.31 2.12 2.24 1.22 4.17 2.5 1.96 1.28 3.21 2.5l-2.89 3q-1.19-1.18-3.11-2.54t-4.13-2.63-4.31-2.23Zm-1.64 14.04 2.72-2.7q2.22 1.02 4.56 2.41t4.38 2.83 3.32 2.75l-2.79 3.06q-1.28-1.3-3.3-2.81-2.02-1.52-4.34-2.97t-4.55-2.57Zm-20.63-6.9h11.99v.12h35.31v-.12h11.38v4.34h-11.38v-.12h-35.31v.12h-11.99Z"/>
    <path id="g55" d="M2.83-27.59h58.59v5.25h-58.59Z"/>
    <path id="g56" d="M5.69-46.33h22.37v4.27h-22.37Zm6.75 43.31h17.97v4.05h-17.97Zm-.05-10.62h18.06v3.83h-18.06Zm-9.62-20.74 33.07.01v4.29h-33.07Zm12.79-18.85h4.49v21.56h-4.49Zm16.97 1.67 4.33 1.29q-5.25 11.99-13.59 21.11t-18.91 14.94q-.25-.53-.81-1.25-.57-.73-1.14-1.48t-1.05-1.17q10.45-5.21 18.45-13.74 8.02-8.55 12.72-19.7Zm-18.61 27.69h16.31v3.98h-16.31v24.7h-4.4v-25.87l2.67-2.82Zm14.41 0h4.62v27.78h-4.62Zm10.23-26.24h19.13v4.53h-14.35v50.71l-4.78-.01Zm17.94 0h.94l.76-.2 3.46 2.2q-2 4.56-4.47 9.74-2.47 5.17-4.83 9.6 3.42 2.97 5.23 5.69 1.82 2.71 2.53 5.16.72 2.45.72 4.75.03 2.97-.73 5.14t-2.53 3.33q-1.67 1.09-4.33 1.43-1.25.13-2.88.13-1.62-.02-3.14-.08-.06-1-.42-2.34-.34-1.36-.97-2.36 1.57.14 2.97.17t2.42-.05q.91-.03 1.68-.22t1.36-.51q1.1-.66 1.53-1.99t.4-3.07q0-3.07-1.87-6.68-1.86-3.62-6.91-7.81 1.27-2.5 2.56-5.28 1.3-2.78 2.5-5.53t2.22-5.27q1.03-2.53 1.8-4.43Z"/>
    <path id="g57" d="M14.58-43.63l4.58 1.24q-1.55 3.81-3.49 7.72t-4 7.4-4.09 6.18q-.42-.36-1.2-.8-.79-.45-1.58-.88-.8-.42-1.41-.68 2.16-2.58 4.19-5.91 2.05-3.33 3.84-7 1.8-3.69 3.16-7.26Zm30.42 1.86 3.92-1.96q2.19 3.1 4.49 6.71t4.32 7 3.25 6l-4.09 2.4q-1.2-2.68-3.2-6.16-2-3.5-4.27-7.17-2.26-3.69-4.42-6.82Zm3.78 21.15 4.36 2.03q-4.36 6.9-11.45 11.65-7.1 4.74-16.5 7.64t-20.77 4.35q-.34-1.03-.97-2.35-.62-1.31-1.33-2.25 10.97-1.22 20.02-3.76 9.06-2.55 15.84-6.78 6.79-4.25 10.8-10.54Zm-20.05-33.11h4.75v39.46h-4.75Z"/>
    <path id="g58" d="M22.47-35.41h38.37v4.46h-38.37Zm27.36 2.1h4.73v32.47q0 2.15-.64 3.26-.62 1.13-2.22 1.72-1.64.53-4.39.64-2.73.13-6.94.13-.17-.99-.68-2.3-.5-1.3-1.03-2.23 2.2.06 4.17.09 1.98.03 3.42 0 1.44-.02 2.02-.02.9-.03 1.23-.33.33-.28.33-1Zm-32.99-5.16 4.6 1.49q-1.99 4.12-4.69 8.09-2.7 3.95-5.78 7.36t-6.27 6.01q-.28-.53-.89-1.29-.59-.78-1.22-1.55-.61-.76-1.11-1.22 4.6-3.39 8.69-8.39 4.1-5.01 6.67-10.5Zm8.68 13.52h17.84v18.14h-17.84v-4.07l13.51.01v-10.02h-13.51Zm-2.29 0h4.29v21.97h-4.29Zm-11.96-.69 4.67-4.64.04.06v35.28h-4.71Zm-7.11-23.33h25.53v4.25h-25.53Zm13.81-4.73h4.55v13.51h-4.55Zm22.97 0h4.61v13.83l-4.61-.01Zm-6.81 4.78h26.01v4.25h-26.02Z"/>
    <path id="g59" d="M41.16-41.11h20.34v4.33h-20.34Zm2.17-12.66 4.14.79q-1.1 5.79-2.66 11.43-1.56 5.63-3.47 10.61t-4.2 8.83q-.34-.37-.97-.95-.61-.58-1.26-1.13-.66-.54-1.18-.87 2.29-3.53 4.08-8.16t3.17-9.89q1.4-5.28 2.35-10.66Zm9.11 15.29 4.28.37q-1.24 10.95-3.91 19.19-2.65 8.23-7.47 14.17-4.79 5.94-12.53 9.94-.2-.47-.65-1.17t-.97-1.38q-.5-.69-.89-1.09 7.36-3.49 11.84-8.97 4.5-5.49 6.89-13.19t3.41-17.87Zm-9.38 1.81q1.22 8.54 3.52 16.01t6.08 13.11q3.79 5.63 9.36 8.66-.52.42-1.13 1.06t-1.14 1.35q-.52.71-.89 1.32-5.72-3.54-9.53-9.59t-6.14-14.05-3.64-17.33Zm-25.26-17.11h3.84v33.62h-3.84Zm-6.83 7.51v10.9l18-.01v-10.89Zm-3.77-3.35 25.72-.01v17.61h-25.72Zm2.63 23.48v4.28h20.14v-4.28Zm-4.11-3.09h28.5v10.45h-28.5Zm-2.91-13.74h5.97v.2h21.42v-.2h6.36v3.69h-6.36v-.2h-21.42v.2h-5.97Zm4.41 37.47q1.55-1.97 3.16-4.53t3.12-5.28q1.5-2.74 2.5-5.17l4 .89q-1.11 2.57-2.63 5.31-1.5 2.72-3.07 5.2t-2.93 4.36Zm0 0 3.16-2.64q3.73.97 7.81 2.47 4.08 1.48 7.75 3.11 3.68 1.62 6.28 3.08l-3.14 2.9q-2.49-1.51-6.17-3.2t-7.79-3.2q-4.09-1.52-7.9-2.52Zm18.44-11.77h3.93v2.24q0 2.01-.45 4.2-.45 2.17-1.84 4.39-1.38 2.21-4.13 4.3t-7.31 3.91-11.39 3.28q-.3-.71-.92-1.68-.63-.95-1.19-1.53 6.44-1.26 10.69-2.87 4.26-1.63 6.79-3.44t3.79-3.69 1.64-3.64q.39-1.78.39-3.31Zm-22.82 2.6h33.22v3.53h-33.22Z"/>
    <path id="g60" d="M10.7-28.52q1.75 0 2.97 1.22t1.22 2.99q0 1.73-1.22 2.97-1.22 1.22-2.98 1.22t-2.99-1.22q-1.22-1.24-1.22-2.99 0-1.76 1.22-2.97 1.24-1.22 3-1.22Zm21.32 0q1.75 0 2.96 1.22 1.22 1.22 1.22 2.99 0 1.73-1.22 2.97-1.21 1.22-2.98 1.22-1.75 0-2.98-1.22-1.22-1.24-1.22-2.99 0-1.76 1.22-2.97t3-1.22Zm21.31 0q1.75 0 2.97 1.22t1.22 2.99q0 1.73-1.22 2.97-1.22 1.22-2.99 1.22-1.75 0-2.98-1.22-1.22-1.24-1.22-2.99 0-1.76 1.22-2.97 1.23-1.22 3-1.22Z"/>
  </defs>
</svg>